<?xml version="1.0" encoding="utf-8"?>
<!-- Generator: Adobe Illustrator 23.0.4, SVG Export Plug-In . SVG Version: 6.00 Build 0)  -->
<svg version="1.1" id="Layer_1" xmlns="http://www.w3.org/2000/svg" xmlns:xlink="http://www.w3.org/1999/xlink" x="0px" y="0px"
	 viewBox="0 0 140.5 45.8" style="enable-background:new 0 0 140.5 45.8;" xml:space="preserve">
<style type="text/css">
	.st0{fill-rule:evenodd;clip-rule:evenodd;fill:#FFFFFF;}
	.st1{fill-rule:evenodd;clip-rule:evenodd;fill:none;stroke:#FFFFFF;}
	.st2{fill:#FFFFFF;}
	.st3{fill:none;stroke:#FFFFFF;stroke-width:8.300000e-02;}
	.st4{fill:#FFFFFF;stroke:#000000;stroke-width:6.779400e-02;}
	.st5{fill:#FFFFFF;stroke:#000000;stroke-width:3.673800e-02;}
</style>
<g>
	<g>
		<path class="st2" d="M39.7,38L48,31c0.8-0.7,1.5-1.3,2.1-1.9c0.6-0.6,1-1.1,1.4-1.6c0.4-0.5,0.6-1,0.8-1.5c0.2-0.5,0.2-1,0.2-1.5
			c0-1.2-0.4-2.1-1.1-2.8c-0.7-0.7-1.7-1-2.8-1c-1.1,0-2.1,0.3-2.9,0.9c-0.8,0.6-1.7,1.5-2.7,2.7l-3-2.3c0.6-0.8,1.2-1.5,1.8-2.2
			c0.6-0.6,1.2-1.2,1.9-1.6c0.7-0.4,1.5-0.8,2.3-1c0.8-0.2,1.8-0.3,2.9-0.3c1.2,0,2.2,0.2,3.2,0.5c1,0.3,1.8,0.8,2.5,1.5
			c0.7,0.6,1.2,1.4,1.6,2.3c0.4,0.9,0.6,1.9,0.6,2.9v0.1c0,0.9-0.1,1.8-0.4,2.6c-0.3,0.8-0.6,1.5-1.2,2.2c-0.5,0.7-1.2,1.4-2,2.2
			c-0.8,0.7-1.7,1.5-2.8,2.4l-5,4.1h11.5v3.7H39.7V38z"/>
		<path class="st2" d="M71.7,41.4c-1.9,0-3.6-0.3-5.1-1c-1.5-0.7-2.9-1.5-4-2.7c-1.1-1.1-2-2.4-2.6-4c-0.6-1.5-0.9-3.1-0.9-4.8v-0.1
			c0-1.7,0.3-3.3,0.9-4.8c0.6-1.5,1.5-2.8,2.6-4c1.1-1.1,2.5-2,4-2.7c1.5-0.7,3.2-1,5.1-1c1.9,0,3.6,0.3,5.1,1
			c1.5,0.7,2.9,1.5,4,2.7c1.1,1.1,2,2.4,2.6,3.9c0.6,1.5,0.9,3.1,0.9,4.8v0.1c0,1.7-0.3,3.3-0.9,4.8c-0.6,1.5-1.5,2.8-2.6,4
			c-1.1,1.1-2.5,2-4,2.7C75.3,41,73.6,41.4,71.7,41.4 M71.8,37.5c1.2,0,2.3-0.2,3.3-0.7c1-0.4,1.8-1.1,2.6-1.8
			c0.7-0.8,1.3-1.7,1.7-2.7c0.4-1,0.6-2.1,0.6-3.3v-0.1c0-1.2-0.2-2.3-0.6-3.3c-0.4-1-1-2-1.7-2.7C76.9,22,76,21.4,75,21
			c-1-0.5-2.1-0.7-3.3-0.7c-1.2,0-2.3,0.2-3.3,0.7c-1,0.5-1.8,1.1-2.6,1.8c-0.7,0.8-1.3,1.7-1.7,2.7c-0.4,1-0.6,2.1-0.6,3.3v0.1
			c0,1.2,0.2,2.3,0.6,3.3c0.4,1,1,2,1.7,2.7c0.7,0.8,1.6,1.4,2.6,1.8C69.5,37.2,70.6,37.5,71.8,37.5"/>
		<path class="st2" d="M86.1,38l8.3-7.1c0.8-0.7,1.5-1.3,2.1-1.9c0.6-0.6,1-1.1,1.4-1.6c0.4-0.5,0.6-1,0.8-1.5
			c0.2-0.5,0.2-1,0.2-1.5c0-1.2-0.4-2.1-1.1-2.8c-0.7-0.7-1.7-1-2.8-1c-1.1,0-2.1,0.3-2.9,0.9c-0.8,0.6-1.7,1.5-2.7,2.7l-3-2.3
			c0.6-0.8,1.2-1.5,1.8-2.2c0.6-0.6,1.2-1.2,1.9-1.6c0.7-0.4,1.5-0.8,2.3-1c0.8-0.2,1.8-0.3,2.9-0.3c1.2,0,2.2,0.2,3.2,0.5
			c1,0.3,1.8,0.8,2.5,1.5c0.7,0.6,1.2,1.4,1.6,2.3c0.4,0.9,0.6,1.9,0.6,2.9v0.1c0,0.9-0.1,1.8-0.4,2.6c-0.3,0.8-0.6,1.5-1.2,2.2
			c-0.5,0.7-1.2,1.4-2,2.2C99,31.8,98,32.6,97,33.5l-5,4.1h11.5v3.7H86.1V38z"/>
		<path class="st2" d="M118.1,41.4c-1.9,0-3.6-0.3-5.1-1c-1.5-0.7-2.9-1.5-4-2.7c-1.1-1.1-2-2.4-2.6-4c-0.6-1.5-0.9-3.1-0.9-4.8
			v-0.1c0-1.7,0.3-3.3,0.9-4.8c0.6-1.5,1.5-2.8,2.6-4c1.1-1.1,2.5-2,4-2.7c1.5-0.7,3.2-1,5.1-1c1.9,0,3.6,0.3,5.1,1
			c1.5,0.7,2.9,1.5,4,2.7c1.1,1.1,2,2.4,2.6,3.9c0.6,1.5,0.9,3.1,0.9,4.8v0.1c0,1.7-0.3,3.3-0.9,4.8c-0.6,1.5-1.5,2.8-2.6,4
			c-1.1,1.1-2.5,2-4,2.7C121.6,41,119.9,41.4,118.1,41.4 M118.1,37.5c1.2,0,2.3-0.2,3.3-0.7c1-0.4,1.8-1.1,2.6-1.8
			c0.7-0.8,1.3-1.7,1.7-2.7c0.4-1,0.6-2.1,0.6-3.3v-0.1c0-1.2-0.2-2.3-0.6-3.3c-0.4-1-1-2-1.7-2.7c-0.7-0.8-1.6-1.4-2.6-1.8
			c-1-0.5-2.1-0.7-3.3-0.7c-1.2,0-2.3,0.2-3.3,0.7c-1,0.5-1.9,1.1-2.6,1.8c-0.7,0.8-1.3,1.7-1.7,2.7c-0.4,1-0.6,2.1-0.6,3.3v0.1
			c0,1.2,0.2,2.3,0.6,3.3c0.4,1,1,2,1.7,2.7c0.7,0.8,1.6,1.4,2.6,1.8C115.8,37.2,116.9,37.5,118.1,37.5"/>
	</g>
	<g>
		<path class="st2" d="M42.3,9c-0.1,0-0.3,0-0.4,0v1.5c0.3,0,0.6,0.1,0.9,0.1v0.8h-3.1v-0.8c0.3-0.1,0.6-0.1,0.9-0.1V5.5
			c-0.3,0-0.6-0.1-0.9-0.1V4.6h0.8c0.3,0,1.2,0,1.9,0c1.7,0,2.6,0.8,2.6,2.1C45,7.9,44,9,42.3,9z M42.4,5.6c-0.2,0-0.3,0-0.5,0v2.3
			c0.1,0,0.3,0,0.4,0c0.8,0,1.3-0.5,1.3-1.2C43.6,6,43.3,5.6,42.4,5.6z M48.7,11.5c-2.1,0-3.1-1.3-3.1-3.4c0-2.2,1.5-3.6,3.3-3.6
			c1.8,0,3.1,1.1,3.1,3.4C52,10.1,50.5,11.5,48.7,11.5z M48.8,5.6c-0.9,0-1.8,0.7-1.8,2.3c0,1.4,0.6,2.4,1.8,2.4
			c0.9,0,1.8-0.7,1.8-2.3C50.6,6.5,49.9,5.6,48.8,5.6z M56.4,11.3l-1.7-2.8h-0.2v1.9c0.2,0,0.4,0,0.6,0.1v0.8h-2.8v-0.8
			c0.3-0.1,0.6-0.1,0.9-0.1V5.5c-0.3,0-0.6-0.1-0.9-0.1V4.6h0.8c0.3,0,1.2,0,2,0c1.5,0,2.5,0.5,2.5,1.9c0,0.9-0.6,1.6-1.6,1.8
			c0.1,0.2,0.2,0.3,0.3,0.5l1,1.6c0.2,0,0.4,0.1,0.7,0.1v0.8H56.4z M55.1,5.6c-0.2,0-0.4,0-0.5,0v2c0.1,0,0.3,0,0.5,0
			c0.8,0,1.3-0.4,1.3-1C56.3,5.9,55.9,5.6,55.1,5.6z M62.8,6.5c0-0.3-0.1-0.6-0.1-0.8h-1v4.8c0.3,0,0.6,0.1,0.9,0.1v0.8h-3.1v-0.8
			c0.3-0.1,0.6-0.1,0.9-0.1V5.6h-1c0,0.3-0.1,0.5-0.1,0.8h-1V4.6h5.5v1.9H62.8z M70.3,5.5v3.2c0,1.8-1,2.7-2.8,2.7
			c-2.1,0-2.6-1.2-2.6-2.5V5.5c-0.2,0-0.4-0.1-0.6-0.1V4.6H67v0.8c-0.2,0.1-0.5,0.1-0.7,0.1v3.4c0,0.9,0.3,1.5,1.4,1.5
			c1,0,1.4-0.4,1.4-1.6V5.5c-0.2,0-0.5-0.1-0.7-0.1V4.6H71v0.8C70.8,5.4,70.6,5.5,70.3,5.5z M77.1,8.7V11c-0.7,0.3-1.5,0.4-2.3,0.4
			c-2.1,0-3.4-1.3-3.4-3.3c0-2.2,1.4-3.6,3.8-3.6c0.6,0,1.3,0.1,1.9,0.3v1.8h-1c-0.1-0.3-0.1-0.6-0.1-0.8c-0.3-0.1-0.6-0.1-0.8-0.1
			c-1.3,0-2.3,0.8-2.3,2.4c0,1.4,0.8,2.3,2.2,2.3c0.3,0,0.6,0,0.9-0.1V8.7c-0.3,0-0.6-0.1-0.9-0.1V7.8h2.7v0.8
			C77.5,8.7,77.3,8.7,77.1,8.7z M81.8,11.3v-0.8c0.2,0,0.5-0.1,0.7-0.1l-0.3-0.8h-2.5l-0.3,0.8c0.2,0,0.5,0.1,0.7,0.1v0.8h-2.5v-0.8
			c0.2-0.1,0.4-0.1,0.5-0.1l2.1-5.9h1.6l2.1,5.9c0.2,0,0.4,0,0.5,0.1v0.8H81.8z M81.3,6.9c-0.1-0.4-0.2-0.7-0.3-1.1h0
			c-0.1,0.3-0.2,0.7-0.3,1.1l-0.6,1.6h1.8L81.3,6.9z M84.8,11.3v-0.8c0.3-0.1,0.6-0.1,0.9-0.1V5.5c-0.3,0-0.6-0.1-0.9-0.1V4.6h3.1
			v0.8c-0.3,0.1-0.6,0.1-0.9,0.1v4.8h1.3c0-0.2,0.1-0.5,0.1-0.8h1v1.9H84.8z"/>
	</g>
	<g>
		<path class="st2" d="M19.4,4.7c-6,2.4-9.7,8.6-9.7,18.2v14.6c0,0,1.2-9.4,9.7-12.1V4.7z"/>
		<path class="st2" d="M22.3,26.9c-3.5,0.7-8.6,3.5-10.1,7.4c7.5-9,22.7-0.3,23.3-17.3c0.2-5.4,0.2-12,0.2-12
			c-7.9,0.4-13.5,2.6-13.5,2.6V26.9z"/>
		<path class="st2" d="M21.3,31.8c0,0-8.1,0.7-8.8,5.3c-0.5,3.6,8.8,3.7,8.8,3.7V31.8z"/>
	</g>
</g>
</svg>
