<?xml version="1.0" encoding="utf-8"?>
<!-- Generator: Adobe Illustrator 23.0.4, SVG Export Plug-In . SVG Version: 6.00 Build 0)  -->
<svg version="1.1" id="Layer_1" xmlns="http://www.w3.org/2000/svg" xmlns:xlink="http://www.w3.org/1999/xlink" x="0px" y="0px"
	 viewBox="0 0 140.5 45.8" style="enable-background:new 0 0 140.5 45.8;" xml:space="preserve">
<style type="text/css">
	.st0{fill-rule:evenodd;clip-rule:evenodd;fill:#FFFFFF;}
	.st1{fill-rule:evenodd;clip-rule:evenodd;fill:none;stroke:#FFFFFF;}
	.st2{fill:#FFFFFF;}
	.st3{font-family:'Arial-BoldMT';}
	.st4{font-size:7px;}
	.st5{fill:none;stroke:#FFFFFF;stroke-width:8.300000e-02;}
	.st6{fill:#FFFFFF;stroke:#000000;stroke-width:6.779400e-02;}
	.st7{fill:#FFFFFF;stroke:#000000;stroke-width:3.673800e-02;}
</style>
<g>
	<text transform="matrix(1 0 0 1 81.2425 32.7568)"><tspan x="0" y="0" class="st2 st3 st4">GOVERNO </tspan><tspan x="0" y="8.4" class="st2 st3 st4">DOS AÇORES</tspan></text>
	<g>
		<rect x="12.4" y="1.9" class="st5" width="63" height="42"/>
		<rect x="33.4" y="1.9" class="st6" width="42" height="42"/>
		<polygon class="st2" points="47.4,19.5 46.5,19.8 46,19 46,20 45.1,20.2 45.9,20.5 45.9,21.4 46.5,20.7 47.4,21 46.8,20.2 		"/>
		<path d="M45.9,21.5l0-1L45,20.2l0.9-0.3l0-1l0.6,0.8l0.9-0.3l-0.6,0.8l0.6,0.8l-0.9-0.3L45.9,21.5z M45.1,20.2l0.8,0.3l0,0.9
			l0.5-0.7l0,0l0.8,0.3l-0.5-0.7l0.5-0.7l-0.8,0.3l0,0L46,19.1l0,0.9l0,0L45.1,20.2z"/>
		<path class="st2" d="M32.5,25.3c0.5-1.2,1.5-1.3,2-2c0.2-0.3,0.8-0.2,1.1-0.2c0.4-0.1,0.5,0.1,0.5,0.4c0.7,0,0.7,0.3,0.6,0.5
			c0-0.1-0.3-0.1-0.5-0.1c0,0.2-0.2,0.3-0.5,0.3c-0.2,0.1-0.3,0.4-0.3,0.6c0.6,0,1.1-0.5,1.7-1.1c0.5-0.6,1.4-1.1,2.9-1
			c1.7,0.1,5.2,0.2,6.4-0.2c1.2-0.3,1.4,0.1,0.6,0.7c0.1,0.2-0.1,0.6-0.5,0.8c0.2,0.2-0.1,0.6-0.7,0.8c0,0.4-0.6,0.8-1.4,0.9
			c0.2,0.5-1,0.9-2.3,0.8c0.1,0.2-0.3,0.5-0.8,0.5c0.2,0.2-0.3,0.4-0.6,0.4c0.2,0.2-0.7,0.4-1.2,0.3c0,0.2-0.5,0.3-0.9,0.2
			c0,0.2-0.4,0.2-0.7,0.1c-0.1,0.2-0.3,0.2-0.6,0c-0.2,0.2-0.4,0.1-0.6,0c-0.1,0.2-0.3,0.2-0.5,0c-0.1,0.2-0.3,0.1-0.5-0.1
			c0,0.2-0.5,0.5-0.8-0.6c-0.1,0.5-0.2,0.8-0.3,1c0.1,0.3,0.2,0.9,0.1,1.5c0.1,0.6,0.3,1.4,0.5,1.9c0.2,0.5-0.1,0.5-0.2,0.4
			c0,0.1,0,0.2,0,0.3c-0.1-0.1-0.2-0.2-0.3-0.2c0,0.1,0,0.2-0.1,0.2c-0.1-0.2-0.3-0.4-0.4-0.4c-0.2,0-0.5,0.2-0.5,0.4
			c0-0.1,0-0.1,0-0.2c-0.1,0.1-0.5,0.1-0.5,0c0,0.1,0,0.1,0,0.2c-0.1-0.1-0.2-0.2-0.3-0.2c0,0.1,0,0.2-0.1,0.2
			c-0.1-0.2-0.3-0.3-0.4-0.3c-0.2,0-0.5,0.2-0.6,0.4c-0.1-0.1-0.1-0.3,0-0.4c-0.1,0-0.2-0.1-0.2-0.2c-0.3,0.5-0.6,0.4-0.8,0.1
			c-0.3,0.3-0.9,0.1-0.6-0.3c1-1.6,1.1-2.1,1.4-2.9c0.1-0.3,0-0.9,0.2-1.3c-0.4,0.6-0.8,0.7-0.9,0.6c-0.1,0.1-0.5,0.3-0.6,0.1
			c-0.1,0.1-0.4,0.1-0.5,0c-0.2,0.1-0.5,0.2-0.5,0c-0.2,0.1-0.6,0.1-0.6,0c-0.3,0.2-0.9,0.1-0.9-0.2c-0.7,0.3-1.3,0.1-1.2-0.2
			c-0.4,0-0.6-0.2-0.6-0.3c-0.4,0-0.7-0.2-0.6-0.5c-0.9,0.1-3.2-0.2-3-0.9c-0.6-0.1-1.6-0.6-1.3-1c-0.4-0.1-0.9-0.5-0.8-0.8
			c-0.6-0.1-0.7-0.6-0.5-0.7c-0.6-0.2-0.6-0.9,0.3-0.6c1.3,0.3,5,0.3,6.9,0.2c2-0.1,1.9,0.4,3.7,1.6C31.5,25.4,32.1,25.2,32.5,25.3"
			/>
		<path d="M31.7,32.8L31.7,32.8c-0.1-0.2-0.1-0.3,0-0.5c-0.1,0-0.1,0-0.1-0.1c0,0,0,0,0,0c-0.1,0.2-0.3,0.3-0.4,0.3h0
			c-0.1,0-0.2-0.1-0.3-0.2c-0.2,0.2-0.5,0.2-0.6,0.1c-0.1-0.1-0.1-0.2,0-0.4c0.9-1.5,1.1-2,1.4-2.7c0-0.1,0-0.1,0.1-0.2
			c0-0.2,0.1-0.3,0.1-0.6c0-0.2,0-0.4,0.1-0.7c-0.2,0.4-0.5,0.5-0.7,0.5c-0.1,0-0.1,0-0.2,0c-0.1,0.1-0.3,0.2-0.4,0.2
			c-0.1,0-0.1,0-0.2-0.1c-0.1,0.1-0.4,0.1-0.5,0c-0.1,0.1-0.3,0.1-0.4,0.1c0,0-0.1,0-0.1-0.1c-0.1,0.1-0.4,0.1-0.5,0
			c-0.1,0-0.1,0-0.1-0.1c-0.2,0.2-0.5,0.1-0.7,0c-0.1-0.1-0.2-0.2-0.2-0.3c-0.5,0.2-0.9,0.2-1.1,0c-0.1-0.1-0.1-0.1-0.1-0.2
			c-0.2,0-0.4,0-0.5-0.1C26,27.7,26,27.6,26,27.6c-0.2,0-0.4-0.1-0.5-0.2c-0.1-0.1-0.1-0.2-0.1-0.3c-0.8,0.1-2.5-0.1-2.9-0.6
			c-0.1-0.1-0.1-0.2-0.1-0.3c-0.5-0.1-1.2-0.4-1.3-0.7c0-0.1,0-0.2,0-0.2c-0.4-0.1-0.9-0.5-0.8-0.8c-0.4-0.1-0.6-0.3-0.6-0.5
			c0-0.1,0-0.2,0.1-0.2c-0.3-0.1-0.4-0.4-0.4-0.5c0-0.1,0.1-0.3,0.8-0.1c1.3,0.3,5,0.3,6.9,0.2c1.5-0.1,1.8,0.2,2.7,0.9
			c0.3,0.2,0.6,0.5,1,0.8c0.6,0.4,1.1,0.4,1.5,0.5c0.1,0,0.2,0,0.3,0c0.3-0.8,0.8-1.1,1.3-1.4c0.3-0.2,0.5-0.3,0.7-0.6
			c0.2-0.2,0.4-0.2,0.7-0.2c0.1,0,0.3,0,0.4,0c0.2,0,0.3,0,0.4,0c0.1,0.1,0.1,0.2,0.2,0.4c0.3,0,0.5,0,0.6,0.1
			c0.1,0.1,0.1,0.3,0,0.4h0c0-0.1-0.3-0.1-0.4-0.1c0,0.2-0.2,0.3-0.4,0.3c0,0-0.1,0-0.1,0c-0.2,0-0.2,0.2-0.2,0.6h0
			c0.6,0,1.1-0.5,1.6-1.1c0.7-0.7,1.7-1.1,2.9-1c1.9,0.1,5.2,0.1,6.4-0.2c0.6-0.2,1-0.2,1.1,0c0.1,0.2-0.1,0.4-0.5,0.7
			c0,0.1,0,0.2,0,0.3c-0.1,0.2-0.3,0.4-0.5,0.5c0,0.1,0.1,0.1,0,0.2c-0.1,0.2-0.3,0.4-0.8,0.6c0,0.4-0.6,0.8-1.4,0.9
			c0,0.1,0,0.2-0.1,0.3c-0.3,0.4-1.2,0.6-2.2,0.5c0,0,0,0.1,0,0.1c-0.1,0.2-0.4,0.4-0.8,0.4c0,0,0,0.1,0,0.1
			c-0.1,0.2-0.4,0.3-0.6,0.3c0,0,0,0,0,0.1c-0.1,0.2-0.8,0.4-1.2,0.3c0,0,0,0.1-0.1,0.1c-0.1,0.1-0.6,0.2-0.8,0.1
			c0,0-0.1,0.1-0.1,0.1c-0.1,0-0.4,0-0.5-0.1c0,0-0.1,0.1-0.1,0.1c-0.1,0-0.3,0-0.4-0.1c-0.1,0.1-0.2,0.1-0.3,0.1
			c-0.1,0-0.2-0.1-0.3-0.1c-0.1,0.1-0.1,0.1-0.2,0.1c-0.1,0-0.2,0-0.3-0.1c-0.1,0.1-0.1,0.1-0.2,0.1c0,0,0,0,0,0
			c-0.1,0-0.2-0.1-0.3-0.2c0,0.1-0.1,0.1-0.2,0.2c0,0,0,0,0,0c-0.1,0-0.4-0.1-0.6-0.7c-0.1,0.5-0.2,0.7-0.3,0.9
			c0.1,0.3,0.1,0.9,0.1,1.5c0.1,0.6,0.3,1.4,0.5,1.9c0.1,0.2,0.1,0.4,0,0.4c-0.1,0.1-0.2,0-0.2,0c0,0.1,0,0.2,0,0.2l0,0l0,0
			c-0.1-0.1-0.2-0.2-0.3-0.2c0,0.1,0,0.2-0.1,0.2l0,0l0,0c0,0,0,0-0.1-0.1c-0.1-0.1-0.2-0.3-0.4-0.3c-0.2,0-0.4,0.2-0.5,0.4l0,0l0,0
			c0-0.1,0-0.1,0-0.2c-0.1,0.1-0.2,0.1-0.4,0.1c0,0-0.1,0-0.1-0.1c0,0,0,0.1,0,0.1l0,0l0,0c-0.1-0.1-0.2-0.2-0.3-0.2
			c0,0.1,0,0.2-0.1,0.2l0,0l0,0c-0.2-0.2-0.3-0.3-0.4-0.3C32.1,32.4,31.8,32.5,31.7,32.8L31.7,32.8z M31.6,32.1L31.6,32.1
			c0,0.1,0,0.1,0,0.1c0,0,0.1,0.1,0.1,0.1l0,0l0,0c-0.1,0.1-0.1,0.3,0,0.4c0.1-0.2,0.4-0.4,0.6-0.4c0.1,0,0.3,0.1,0.4,0.3
			c0.1-0.1,0.1-0.1,0.1-0.2l0,0h0c0.1,0,0.3,0.1,0.3,0.2c0,0,0-0.1,0-0.1l0-0.1l0,0c0,0,0.1,0.1,0.1,0.1c0.1,0,0.3,0,0.4-0.1l0,0v0
			c0,0.1,0,0.1,0,0.2c0.1-0.2,0.4-0.4,0.5-0.4l0,0c0.1,0,0.3,0.2,0.4,0.3c0,0,0,0,0,0.1c0.1-0.1,0.1-0.1,0.1-0.2l0,0h0
			c0.1,0,0.2,0.1,0.3,0.2c0-0.1,0-0.2,0-0.2l0,0l0,0c0,0,0.2,0.1,0.2,0c0,0,0.1-0.1,0-0.4c-0.2-0.5-0.4-1.3-0.5-1.9
			c0-0.6,0-1.2-0.1-1.5l0,0l0,0c0.1-0.2,0.2-0.5,0.3-1l0,0c0.2,0.6,0.4,0.7,0.5,0.7c0,0,0,0,0,0c0.1,0,0.2-0.1,0.2-0.2l0,0l0,0
			c0.1,0.1,0.2,0.2,0.3,0.2c0.1,0,0.1,0,0.2-0.1l0,0l0,0c0.1,0.1,0.2,0.1,0.2,0.1c0,0,0,0,0,0c0.1,0,0.2-0.1,0.2-0.1l0,0l0,0
			c0.1,0.1,0.2,0.1,0.3,0.1c0,0,0,0,0,0c0.1,0,0.2,0,0.3-0.1l0,0l0,0c0.1,0.1,0.3,0.1,0.4,0.1c0.1,0,0.1-0.1,0.1-0.1l0,0l0,0
			c0.2,0.1,0.4,0.1,0.5,0.1c0.1,0,0.1-0.1,0.1-0.1l0,0l0,0c0.3,0.1,0.7,0,0.8-0.1c0,0,0-0.1,0-0.1l0,0l0,0c0.4,0.1,1.1-0.1,1.2-0.3
			c0,0,0,0,0-0.1l0,0l0,0c0.2,0,0.5-0.1,0.6-0.3c0,0,0-0.1,0-0.1l0,0h0c0.3,0,0.7-0.2,0.8-0.3c0-0.1,0-0.1,0-0.1l0,0l0,0
			c1,0.1,1.9-0.2,2.2-0.5c0.1-0.1,0.1-0.2,0-0.3l0,0l0,0c0.8-0.1,1.4-0.5,1.3-0.9l0,0l0,0c0.4-0.2,0.7-0.4,0.8-0.6
			c0-0.1,0-0.1,0-0.2l0,0l0,0c0.2-0.1,0.4-0.3,0.5-0.5c0-0.1,0-0.2,0-0.3l0,0l0,0c0.4-0.2,0.5-0.5,0.5-0.6c-0.1-0.1-0.4-0.2-1,0
			c-1.1,0.3-4.5,0.3-6.4,0.2c-1.2-0.1-2.2,0.3-2.9,1c-0.6,0.6-1.1,1.1-1.7,1.1c0,0,0,0,0,0h0l0,0c0-0.4,0.1-0.6,0.3-0.6
			c0,0,0.1,0,0.1,0c0.2-0.1,0.3-0.1,0.3-0.3v0l0,0c0.1,0,0.4,0,0.5,0.1c0-0.1,0-0.3,0-0.3c-0.1-0.1-0.3-0.1-0.5-0.1h0l0,0
			c0-0.2-0.1-0.3-0.2-0.4c-0.1-0.1-0.2-0.1-0.3,0c-0.1,0-0.3,0-0.4,0c-0.3,0-0.6,0-0.7,0.2c-0.2,0.3-0.5,0.4-0.8,0.6
			c-0.5,0.3-1,0.6-1.3,1.4l0,0l0,0c-0.1,0-0.2,0-0.3,0c-0.4,0-0.9,0-1.5-0.5c-0.4-0.3-0.7-0.5-1-0.8c-0.8-0.7-1.2-0.9-2.7-0.9
			c-2,0.1-5.6,0.2-6.9-0.2c-0.5-0.1-0.7,0-0.7,0.1c0,0.2,0.1,0.4,0.4,0.5l0,0l0,0c-0.1,0-0.1,0.1-0.1,0.2c0,0.2,0.2,0.4,0.6,0.5l0,0
			l0,0c0,0.3,0.4,0.6,0.8,0.8l0,0l0,0c-0.1,0.1-0.1,0.1,0,0.2c0.1,0.3,0.8,0.6,1.3,0.7l0,0l0,0c0,0.1,0,0.2,0.1,0.3
			c0.4,0.5,2.1,0.7,2.9,0.6l0,0l0,0c0,0.1,0,0.2,0.1,0.3c0.1,0.1,0.3,0.2,0.5,0.2l0,0l0,0c0,0.1,0,0.1,0.1,0.2
			c0.1,0.1,0.3,0.2,0.5,0.1l0,0l0,0c0,0.1,0,0.2,0.1,0.2c0.2,0.1,0.6,0.2,1.1-0.1l0,0l0,0c0,0.1,0.1,0.2,0.2,0.3
			c0.2,0.1,0.5,0.1,0.7-0.1l0,0l0,0c0,0,0.1,0.1,0.1,0.1c0.1,0,0.4,0,0.5-0.1l0,0l0,0c0,0,0,0.1,0.1,0.1c0.1,0,0.3,0,0.4-0.1l0,0
			l0,0c0.1,0.1,0.3,0.1,0.4,0l0,0l0,0c0,0.1,0.1,0.1,0.1,0.1c0.1,0,0.3-0.1,0.4-0.2l0,0l0,0c0,0,0.1,0.1,0.1,0
			c0.2,0,0.5-0.2,0.7-0.6l0,0c-0.1,0.3-0.1,0.5-0.1,0.8c0,0.2,0,0.4-0.1,0.6c0,0.1,0,0.1-0.1,0.2c-0.2,0.7-0.4,1.3-1.4,2.7
			c-0.1,0.1-0.1,0.3,0,0.3c0.1,0.1,0.4,0.1,0.6-0.1l0,0l0,0c0.1,0.1,0.2,0.2,0.3,0.2h0C31.3,32.4,31.4,32.4,31.6,32.1"/>
		<path d="M34.9,32.4L34.9,32.4c0-0.1-0.1-0.2-0.2-0.3l0,0C34.8,32.2,34.9,32.3,34.9,32.4"/>
		<path d="M35.2,32.3c-0.1-0.3-0.3-0.2-0.4-0.2l0,0l0,0c-0.2,0-0.3-0.2-0.3-0.4c0-0.2,0.1-0.4,0.3-0.8c0.1-0.2,0.1-0.6,0.2-0.9l0,0
			c0,0.3,0,0.7-0.2,0.9c-0.2,0.4-0.3,0.6-0.3,0.8c0,0.2,0.1,0.3,0.2,0.4C35,32,35.2,32.1,35.2,32.3L35.2,32.3z"/>
		<path d="M33.8,32.5L33.8,32.5c0-0.1,0-0.4,0.3-0.4c0.1,0,0.2-0.1,0.2-0.3c0-0.2-0.1-0.4-0.3-0.6c-0.2-0.3-0.6-0.8-0.6-1.8h0
			c0,1,0.3,1.4,0.5,1.8c0.2,0.2,0.3,0.4,0.3,0.7c0,0.2-0.1,0.3-0.2,0.3C33.8,32.1,33.8,32.4,33.8,32.5"/>
		<path d="M34.4,29.1L34.4,29.1c0-0.2,0.1-0.3,0.2-0.4c0.1-0.1,0.1-0.2,0.2-0.3l0,0c-0.1,0.1-0.1,0.2-0.2,0.3
			C34.5,28.9,34.4,29,34.4,29.1"/>
		<path d="M32.8,25.5c0-0.1-0.1-0.2-0.3-0.2l0,0C32.7,25.3,32.8,25.4,32.8,25.5L32.8,25.5z"/>
		<path d="M32.9,32.4L32.9,32.4c0-0.1-0.1-0.2-0.1-0.3l0,0C32.8,32.2,32.9,32.3,32.9,32.4"/>
		<path d="M33.2,32.5L33.2,32.5c0-0.1-0.1-0.2-0.1-0.3c-0.1-0.1-0.2-0.1-0.3-0.1h0h0c-0.1,0-0.2-0.1-0.2-0.3c0-0.4,0.2-0.7,0.3-1
			c0.2-0.5,0.5-1,0.4-2.1l0,0c0.1,1.1-0.2,1.6-0.4,2.1c-0.2,0.3-0.3,0.6-0.3,1c0,0.2,0.1,0.2,0.2,0.3c0.1,0,0.3,0,0.4,0.1
			C33.2,32.2,33.2,32.3,33.2,32.5"/>
		<path d="M31.8,32.3L31.8,32.3c0-0.1,0.1-0.2,0.3-0.2c0.1,0,0.2,0,0.2-0.2c0-0.1-0.1-0.2-0.1-0.3c0,0,0-0.1-0.1-0.1
			c-0.3-0.5-0.6-1.9-0.4-2.4l0,0c-0.2,0.5,0.1,1.9,0.4,2.4c0,0,0,0.1,0.1,0.1c0.1,0.1,0.1,0.2,0.1,0.3c0,0.2-0.1,0.3-0.2,0.3
			C31.9,32.1,31.8,32.2,31.8,32.3"/>
		<path d="M35.1,27.5L35.1,27.5c0-0.2,0-0.5,0-0.8c0-0.3,0.1-0.5,0.2-0.7c0.1-0.2,0.2-0.5,0.2-0.8c0,0,0-0.1,0-0.1c0,0,0-0.1,0-0.1
			l0,0c0,0,0,0.1,0,0.1c0,0,0,0.1,0,0.1c0,0.4-0.1,0.6-0.2,0.9c-0.1,0.2-0.2,0.4-0.2,0.7C35.2,27,35.2,27.3,35.1,27.5"/>
		<path d="M32.7,25.8c-1.6-0.1-2.7-0.5-3.3-1.4c-0.7-1-1.8-1-3-0.9c-1.3,0.1-2.5,0.1-3.3,0l0,0c0.8,0.1,2,0.1,3.3,0
			c1.2-0.1,2.3-0.1,3,0.9C30,25.2,31,25.7,32.7,25.8L32.7,25.8z"/>
		<path d="M26,24.1c-0.9,0-1.2-0.2-1.3-0.3c-0.1-0.1-0.1-0.2,0-0.2l0,0c0,0.1,0,0.1,0,0.2c0.1,0.2,0.6,0.4,2.3,0.2l0,0
			C26.6,24.1,26.2,24.1,26,24.1"/>
		<path d="M26.4,24.6c-0.6,0-1.1-0.1-1.3-0.3c-0.1-0.1-0.2-0.2-0.2-0.3l0,0c0,0.1,0.1,0.2,0.2,0.3c0.4,0.3,1.2,0.4,2.3,0.2l0,0
			C27,24.6,26.7,24.6,26.4,24.6"/>
		<path d="M26.7,25c-0.3,0-0.6,0-0.8,0c-0.3,0-0.6-0.3-0.6-0.4c0,0,0-0.1,0.2-0.1l0,0c-0.1,0-0.2,0-0.2,0.1c0,0.1,0.2,0.3,0.5,0.4
			c0.5,0.1,1.4,0.1,1.9-0.1l0,0C27.5,25,27.1,25,26.7,25"/>
		<path d="M26.9,25.6c-0.1,0-0.2,0-0.3,0c-0.5,0-0.8-0.2-0.9-0.4c0-0.1,0-0.2,0.1-0.3l0,0c-0.1,0.1-0.1,0.2-0.1,0.2
			c0,0.1,0.2,0.3,0.9,0.3c0.3,0,1,0,1.6-0.2l0,0C27.8,25.6,27.3,25.6,26.9,25.6"/>
		<path d="M27.3,26.1c-0.3,0-0.6-0.2-0.6-0.3c0-0.1,0-0.2,0.1-0.2l0,0c-0.1,0.1-0.1,0.1-0.1,0.2C26.7,25.9,27,26.1,27.3,26.1
			c0.5,0,1-0.1,1.4-0.3l0,0C28.3,26,27.8,26.1,27.3,26.1"/>
		<path d="M27.7,26.6c-0.3,0-0.4-0.1-0.5-0.2c-0.1-0.1-0.1-0.2,0-0.3l0,0c-0.1,0.1-0.1,0.2,0,0.3c0.1,0.1,0.4,0.2,0.8,0.1
			c0.2-0.1,0.8-0.3,1-0.4l0,0c-0.2,0.1-0.7,0.4-1,0.4C27.9,26.5,27.8,26.6,27.7,26.6"/>
		<path d="M28.2,26.9c-0.1,0-0.2-0.1-0.3-0.1c-0.1-0.1,0-0.2,0.1-0.3l0,0C28,26.6,28,26.7,28,26.8c0.1,0.1,0.2,0.2,0.5,0
			c0.1,0,0.4-0.2,0.7-0.5l0,0c-0.3,0.3-0.6,0.4-0.7,0.5C28.4,26.9,28.3,26.9,28.2,26.9"/>
		<path d="M28.7,27.1c-0.1,0-0.1,0-0.2-0.1c-0.1-0.1-0.1-0.1-0.1-0.2l0,0c0,0.1,0,0.2,0.1,0.2c0.1,0.1,0.2,0.1,0.4,0
			c0.3-0.2,0.4-0.3,0.6-0.6l0,0c-0.1,0.2-0.3,0.4-0.6,0.6C28.9,27.1,28.8,27.1,28.7,27.1"/>
		<path d="M29.1,27.2C29.1,27.2,29.1,27.2,29.1,27.2C29,27.2,29,27.1,29,27l0,0C29,27.1,29,27.1,29.1,27.2c0,0,0.2,0,0.7-0.6l0,0
			C29.5,27.1,29.3,27.2,29.1,27.2"/>
		<path d="M29.5,27.3C29.5,27.3,29.4,27.3,29.5,27.3c-0.2-0.1-0.2-0.1-0.2-0.2l0,0C29.4,27.2,29.4,27.3,29.5,27.3
			c0.1,0,0.3-0.1,0.7-0.5l0,0C29.9,27.2,29.6,27.3,29.5,27.3"/>
		<path d="M29.9,27.4C29.9,27.4,29.9,27.4,29.9,27.4c-0.1,0-0.2-0.1-0.2-0.1l0,0C29.8,27.3,29.9,27.4,29.9,27.4
			C29.9,27.4,29.9,27.4,29.9,27.4c0.1,0,0.3-0.2,0.6-0.5l0,0C30.3,27.3,30.1,27.4,29.9,27.4"/>
		<path d="M30.3,27.5c0,0-0.1,0-0.1,0c-0.1,0-0.1-0.1-0.1-0.2l0,0C30.1,27.4,30.1,27.5,30.3,27.5c0,0,0.3-0.1,0.5-0.4l0,0
			C30.6,27.4,30.4,27.5,30.3,27.5"/>
		<path d="M30.6,27.5C30.6,27.5,30.6,27.5,30.6,27.5c-0.1,0-0.1-0.1-0.1-0.1l0,0C30.5,27.5,30.6,27.5,30.6,27.5c0,0,0.4-0.1,0.6-0.4
			l0,0C31.1,27.4,30.8,27.5,30.6,27.5"/>
		<path d="M31.2,27.6c-0.1,0-0.2,0-0.3-0.1l0,0C31,27.5,31.1,27.5,31.2,27.6C31.2,27.5,31.2,27.5,31.2,27.6c0.2,0,0.4-0.2,0.5-0.4
			l0,0C31.5,27.4,31.4,27.6,31.2,27.6C31.2,27.6,31.2,27.6,31.2,27.6"/>
		<path d="M31.7,27.6c-0.1,0-0.1,0-0.1,0c-0.1-0.1-0.1-0.2,0-0.3l0,0c-0.1,0.1-0.1,0.2,0,0.2c0.1,0.1,0.3,0,0.4-0.1l0,0
			C31.9,27.6,31.8,27.6,31.7,27.6"/>
		<path d="M31.9,27.7L31.9,27.7c0.2-0.2,0.3-0.5,0.3-0.8c0-0.2,0.1-0.4,0.3-0.4v0c-0.2,0-0.2,0.2-0.2,0.4
			C32.2,27.2,32.1,27.5,31.9,27.7"/>
		<path d="M23.7,24.1c-1.5,0-3.2-0.2-3.9-0.5l0,0c0.9,0.3,3.5,0.5,5.1,0.4l0,0C24.5,24.1,24.1,24.1,23.7,24.1"/>
		<path d="M24.6,24.8c-1.5,0-3.4-0.1-4.3-0.4l0,0c1.1,0.3,3.6,0.4,5.1,0.3l0,0C25.2,24.7,24.9,24.8,24.6,24.8"/>
		<path d="M24.6,25.5c-1.4,0-2.9-0.2-3.5-0.4l0,0c0.7,0.2,3.2,0.5,4.8,0.3l0,0C25.5,25.5,25.1,25.5,24.6,25.5"/>
		<path d="M24.6,26.3c-1,0-1.9-0.1-2.2-0.2l0,0c0.6,0.2,3.1,0.4,4.5-0.1l0,0C26.3,26.2,25.4,26.3,24.6,26.3"/>
		<path d="M25.4,27L25.4,27c0.4-0.1,1.4-0.3,1.9-0.6l0,0C26.8,26.8,25.8,27,25.4,27"/>
		<path d="M26,27.5L26,27.5c0.6-0.1,1.4-0.4,1.9-0.8l0,0C27.5,27.2,26.6,27.5,26,27.5"/>
		<path d="M26.6,27.9L26.6,27.9c0.4-0.1,1.5-0.5,1.9-0.8l0,0C28.1,27.4,27.1,27.9,26.6,27.9"/>
		<path d="M27.9,28.1L27.9,28.1c0.4-0.2,0.9-0.5,1.3-0.9l0,0C28.8,27.6,28.3,27.9,27.9,28.1"/>
		<path d="M28.8,28.3L28.8,28.3c0.3-0.3,0.6-0.6,0.9-0.9c0,0,0.1-0.1,0.1-0.1l0,0c0,0-0.1,0.1-0.1,0.1
			C29.4,27.7,29.1,28.1,28.8,28.3"/>
		<path d="M29.4,28.3L29.4,28.3c0.3-0.2,0.5-0.5,0.7-0.8l0-0.1l0,0l0,0.1C29.9,27.9,29.7,28.2,29.4,28.3"/>
		<path d="M29.9,28.3L29.9,28.3c0.2-0.2,0.5-0.5,0.7-0.8l0,0C30.4,27.8,30.1,28.2,29.9,28.3"/>
		<path d="M30.4,28.3L30.4,28.3c0.2-0.2,0.5-0.5,0.6-0.8l0,0C30.9,27.8,30.6,28.1,30.4,28.3"/>
		<path d="M31,28.3L31,28.3c0.2-0.2,0.4-0.5,0.5-0.8l0,0C31.4,27.8,31.2,28.1,31,28.3"/>
		<path d="M30.8,32.3L30.8,32.3c0.3-0.5,0.6-1.1,0.9-1.7l0,0C31.5,31.1,31.1,31.8,30.8,32.3"/>
		<path d="M31.6,32.1L31.6,32.1c0.1-0.2,0.2-0.3,0.2-0.5c0-0.1,0.1-0.2,0.1-0.3l0,0c0,0.1-0.1,0.2-0.1,0.3
			C31.8,31.8,31.7,32,31.6,32.1"/>
		<path d="M33.1,32.1c0-0.1,0-0.2,0-0.4c0-0.4,0-1,0-1.4l0,0c0,0.3,0,1,0,1.4C33.1,31.9,33.1,32,33.1,32.1L33.1,32.1z"/>
		<path d="M33.8,32.2L33.8,32.2c0-0.2-0.1-0.4-0.1-0.7c0-0.3-0.1-0.7-0.1-1.1h0c0,0.3,0,0.7,0.1,1.1C33.8,31.8,33.8,32,33.8,32.2"/>
		<path d="M34.9,32.1c0,0-0.2-0.7-0.2-1l0,0C34.8,31.4,34.9,32.1,34.9,32.1L34.9,32.1z"/>
		<path d="M35.6,25.5L35.6,25.5c0.6,0,1.1-0.5,1.6-1c0.6-0.6,1.3-1.4,2.7-1.4c0,0,0.1,0,0.1,0c0.9,0,1.7,0.1,2.3,0.1
			c1.1,0.1,2,0.1,2.7,0l0,0c-0.7,0.1-1.5,0-2.7,0c-0.7,0-1.4-0.1-2.3-0.1c0,0-0.1,0-0.1,0c-1.3,0-2,0.7-2.6,1.4
			C36.7,25,36.2,25.5,35.6,25.5"/>
		<path d="M41.1,23.8c-0.2,0-0.5,0-0.7,0l0,0c1.1,0.1,1.8,0,2-0.2c0.1-0.1,0.1-0.1,0.1-0.2l0,0c0,0.1,0,0.2-0.1,0.2
			C42.2,23.7,41.8,23.8,41.1,23.8"/>
		<path d="M41.1,24.3c-0.3,0-0.6,0-1-0.1l0,0c0.7,0.1,1.4,0.2,1.7-0.1c0.1-0.1,0.1-0.2,0.1-0.4l0,0c0,0.2,0,0.3-0.1,0.4
			C41.7,24.3,41.4,24.3,41.1,24.3"/>
		<path d="M40.8,24.8c-0.3,0-0.7-0.1-1.1-0.1l0,0c0.4,0.1,1.4,0.3,1.7,0c0.1-0.1,0.2-0.2,0.2-0.4l0,0c0,0.2,0,0.3-0.2,0.4
			C41.3,24.8,41,24.8,40.8,24.8"/>
		<path d="M40.4,25.4c-0.3,0-0.8-0.1-1.3-0.2l0,0c1,0.3,1.6,0.3,1.9,0.1c0.1-0.1,0.2-0.2,0.1-0.4l0,0c0,0.2,0,0.4-0.2,0.5
			C40.9,25.3,40.7,25.4,40.4,25.4"/>
		<path d="M39.9,25.9c-0.4,0-0.8-0.1-1.2-0.3l0,0c0.8,0.3,1.5,0.3,1.7,0.1c0.1-0.1,0.1-0.2,0.1-0.4l0,0c0,0.2,0,0.3-0.1,0.4
			C40.3,25.9,40.1,25.9,39.9,25.9"/>
		<path d="M39.3,26.3c-0.3,0-0.7-0.1-1.1-0.4l0,0c0.5,0.3,1.1,0.5,1.4,0.3c0.1-0.1,0.2-0.2,0.2-0.3h0c0,0.2-0.1,0.3-0.2,0.4
			C39.5,26.3,39.4,26.3,39.3,26.3"/>
		<path d="M38.8,26.6c-0.2,0-0.6-0.1-1-0.4l0,0c0.5,0.3,0.9,0.5,1.1,0.4c0.1,0,0.2-0.1,0.2-0.3l0,0c0,0.2-0.1,0.3-0.2,0.3
			C38.9,26.6,38.8,26.6,38.8,26.6"/>
		<path d="M38.3,26.8c-0.2,0-0.5-0.2-0.7-0.4l0,0C37.8,26.7,38.1,26.8,38.3,26.8c0.2-0.1,0.2-0.1,0.3-0.2l0,0
			C38.5,26.7,38.5,26.8,38.3,26.8C38.3,26.8,38.3,26.8,38.3,26.8"/>
		<path d="M37.9,27c-0.2,0-0.5-0.2-0.7-0.5l0,0C37.5,26.8,37.8,27,37.9,27c0.1-0.1,0.1-0.1,0.2-0.2l0,0C38.1,26.9,38,26.9,37.9,27
			C37.9,27,37.9,27,37.9,27"/>
		<path d="M37.6,27.1c-0.2,0-0.5-0.2-0.7-0.5l0,0C37.2,26.9,37.5,27.1,37.6,27.1c0.1-0.1,0.1-0.1,0.1-0.2l0,0
			C37.8,27,37.7,27.1,37.6,27.1C37.6,27.1,37.6,27.1,37.6,27.1"/>
		<path d="M37.3,27.2c-0.2,0-0.4-0.2-0.6-0.5l0,0C36.9,27,37.1,27.2,37.3,27.2c0.1,0,0.1-0.1,0.2-0.2l0,0
			C37.4,27.1,37.4,27.2,37.3,27.2C37.3,27.2,37.3,27.2,37.3,27.2"/>
		<path d="M36.9,27.3c-0.2,0-0.4-0.2-0.5-0.6l0,0C36.5,27.1,36.7,27.3,36.9,27.3L36.9,27.3c0.1,0,0.1-0.1,0.2-0.2l0,0
			C37,27.2,37,27.3,36.9,27.3C36.9,27.3,36.9,27.3,36.9,27.3"/>
		<path d="M36.4,27.3C36.4,27.3,36.4,27.3,36.4,27.3c-0.2,0-0.4-0.2-0.5-0.7l0,0C36.1,27.1,36.3,27.3,36.4,27.3
			c0.1,0,0.1-0.1,0.2-0.2l0,0C36.6,27.3,36.5,27.3,36.4,27.3"/>
		<path d="M36.1,27.4C36.1,27.4,36.1,27.4,36.1,27.4c-0.2,0-0.3-0.3-0.4-0.6l0,0C35.8,27.2,36,27.3,36.1,27.4c0,0,0.1-0.1,0.2-0.1
			l0,0C36.3,27.4,36.2,27.4,36.1,27.4"/>
		<path d="M35.8,27.4C35.7,27.4,35.7,27.4,35.8,27.4c-0.2,0-0.3-0.3-0.4-0.6l0,0C35.5,27.2,35.6,27.4,35.8,27.4c0,0,0.1-0.1,0.2-0.1
			l0,0C35.9,27.4,35.8,27.4,35.8,27.4"/>
		<path d="M35.3,27.4c-0.1,0-0.1,0-0.2-0.1l0,0C35.2,27.4,35.3,27.4,35.3,27.4c0.1,0,0.2-0.1,0.2-0.2l0,0
			C35.5,27.4,35.4,27.4,35.3,27.4C35.3,27.4,35.3,27.4,35.3,27.4"/>
		<path d="M42.3,23.9c-0.2,0-0.3,0-0.4,0l0,0c1.2,0,4.4-0.1,5.1-0.6l0,0C46.4,23.8,43.6,23.9,42.3,23.9"/>
		<path d="M42.5,24.6c-0.3,0-0.7,0-1,0l0,0c2.1,0.1,4.1-0.1,5.1-0.5l0,0C45.7,24.4,44.2,24.6,42.5,24.6"/>
		<path d="M42.3,25.2c-0.5,0-1,0-1.3,0l0,0c1.1,0.1,3.9,0.1,4.8-0.3l0,0C45.2,25.1,43.6,25.2,42.3,25.2"/>
		<path d="M42.8,25.9c-0.9,0-1.8-0.1-2.4-0.1l0,0c1.1,0.1,3.1,0.2,4,0l0,0C44.1,25.8,43.5,25.9,42.8,25.9"/>
		<path d="M42.2,26.6c-0.7,0-1.8-0.2-2.5-0.4l0,0C40.4,26.3,41.5,26.5,42.2,26.6L42.2,26.6z"/>
		<path d="M41.3,27.1c-0.5,0-1.7-0.3-2.3-0.5l0,0c0.7,0.3,1.9,0.6,2.4,0.5l0,0C41.4,27.1,41.3,27.1,41.3,27.1"/>
		<path d="M40.7,27.5c-0.5,0-1.6-0.2-2.2-0.8l0,0c0.7,0.6,2,0.8,2.3,0.8l0,0C40.8,27.5,40.7,27.5,40.7,27.5"/>
		<path d="M39.6,27.9c-0.5-0.1-1.3-0.5-1.7-0.9l0,0C38.4,27.4,39.1,27.8,39.6,27.9L39.6,27.9z"/>
		<path d="M38.7,28.1c-0.5-0.1-0.9-0.6-1.2-1l0,0C37.8,27.5,38.2,28,38.7,28.1L38.7,28.1z"/>
		<path d="M38.1,28.1c-0.2-0.2-0.7-0.6-1-1l0,0C37.4,27.5,37.9,27.9,38.1,28.1L38.1,28.1z"/>
		<path d="M37.5,28.2c-0.4-0.2-0.6-0.6-0.7-0.9l0,0C36.9,27.6,37.2,28,37.5,28.2L37.5,28.2z"/>
		<path d="M36.9,28.1c-0.2-0.3-0.4-0.5-0.5-0.8l0,0C36.6,27.6,36.7,27.8,36.9,28.1L36.9,28.1z"/>
		<path d="M36.4,28.1c-0.1-0.2-0.3-0.4-0.4-0.8l0,0C36.2,27.8,36.3,27.9,36.4,28.1L36.4,28.1z"/>
		<path d="M35.9,28.1c-0.2-0.2-0.3-0.4-0.4-0.8l0,0C35.7,27.7,35.8,27.9,35.9,28.1L35.9,28.1z"/>
		<path d="M35.9,24L35.9,24c0-0.1,0.1-0.1,0.2-0.1c0,0,0.1,0,0.1,0l0,0c0,0-0.1,0-0.1,0C36.1,24,36,24,35.9,24"/>
		<path d="M36.1,23.7L36.1,23.7C36.1,23.6,36.1,23.6,36.1,23.7c0-0.1,0-0.1,0-0.1l0,0C36.2,23.6,36.2,23.6,36.1,23.7
			C36.2,23.6,36.1,23.6,36.1,23.7"/>
		<path d="M35.9,23.6c-0.1-0.1-0.3,0-0.3,0c-0.1,0-0.2,0-0.3,0c-0.1,0-0.2,0-0.3,0l0,0c0.1,0,0.2,0,0.3,0c0.1,0,0.2,0,0.2,0
			C35.7,23.5,35.8,23.5,35.9,23.6L35.9,23.6z"/>
		<path d="M35.5,23.7C35.5,23.7,35.5,23.7,35.5,23.7c-0.1,0-0.1,0-0.2-0.1c0,0,0-0.1,0-0.1l0,0c0,0,0,0.1,0,0.1
			C35.4,23.6,35.4,23.7,35.5,23.7c0,0,0.1-0.1,0.1-0.1c0,0,0-0.1,0-0.1l0,0c0,0,0,0.1,0,0.1C35.6,23.7,35.6,23.7,35.5,23.7"/>
		<polygon class="st2" points="33.5,12.3 33.2,13.1 32.3,13.1 33,13.7 32.7,14.6 33.5,14 34.2,14.6 33.9,13.7 34.7,13.1 33.8,13.1 
					"/>
		<path d="M32.7,14.6l0.3-0.9l-0.8-0.6h1l0.3-0.9l0.3,0.9h1L34,13.7l0.3,0.9L33.5,14L32.7,14.6z M33.5,14L33.5,14l0.7,0.5l-0.3-0.8
			l0.7-0.5h-0.9l0,0l-0.3-0.8l-0.3,0.8h-0.9l0.7,0.5l0,0l-0.3,0.8L33.5,14z"/>
		<polygon class="st2" points="37.5,12.8 37,13.5 36.1,13.3 36.7,14 36.2,14.8 37.1,14.5 37.7,15.2 37.6,14.2 38.5,13.9 37.6,13.7 
					"/>
		<path d="M37.7,15.2l-0.6-0.7l-0.9,0.4l0.5-0.8l-0.6-0.7l0.9,0.2l0.5-0.8l0.1,1l0.9,0.2l-0.9,0.4L37.7,15.2z M37.1,14.4L37.1,14.4
			l0.6,0.7l-0.1-0.9l0.8-0.3l-0.9-0.2l0,0l-0.1-0.9L37,13.6l-0.9-0.2l0.6,0.7l-0.5,0.7L37.1,14.4z"/>
		<polygon class="st2" points="41.3,14.2 40.7,14.8 39.8,14.4 40.2,15.2 39.6,15.9 40.5,15.7 40.9,16.6 41.1,15.7 42,15.5 
			41.2,15.1 		"/>
		<path d="M40.9,16.6l-0.4-0.9l-1,0.1l0.7-0.7l-0.4-0.9l0.9,0.4l0.7-0.7l-0.2,1l0.9,0.4l-1,0.1L40.9,16.6z M40.5,15.7L40.5,15.7
			l0.4,0.8l0.1-0.9l0,0l0.9-0.1l-0.8-0.4l0.1-0.9l-0.6,0.6l0,0l-0.8-0.4l0.4,0.8l-0.6,0.6L40.5,15.7z"/>
		<polygon class="st2" points="44.7,16.5 43.9,17 43.2,16.3 43.4,17.3 42.6,17.7 43.5,17.8 43.7,18.7 44.1,17.9 45,17.9 44.3,17.3 
					"/>
		<path d="M43.7,18.8l-0.2-0.9l-1-0.1l0.8-0.5l-0.2-0.9l0.7,0.6l0.8-0.5l-0.4,0.9l0.7,0.6l-1-0.1L43.7,18.8z M42.6,17.7l0.9,0.1l0,0
			l0.2,0.8l0.4-0.8h0l0.9,0.1l-0.7-0.6l0,0l0.3-0.8L43.9,17l0,0l-0.7-0.6l0.2,0.9l0,0L42.6,17.7z"/>
		<polygon class="st2" points="29.4,12.8 29.9,13.5 30.8,13.3 30.2,14 30.7,14.8 29.9,14.5 29.3,15.2 29.3,14.2 28.5,13.9 
			29.4,13.7 		"/>
		<path d="M29.2,15.2l0.1-1l-0.9-0.4l0.9-0.2l0.1-1l0.5,0.8l0.9-0.2L30.2,14l0.5,0.8l-0.9-0.4L29.2,15.2z M28.5,13.9l0.8,0.3l0,0
			l-0.1,0.9l0.6-0.7l0.8,0.3L30.2,14l0,0l0.6-0.7l-0.9,0.2l0,0l-0.5-0.7l-0.1,0.9l0,0L28.5,13.9z"/>
		<polygon class="st2" points="25.6,14.2 26.3,14.8 27.1,14.4 26.7,15.2 27.4,15.9 26.4,15.7 26,16.6 25.9,15.7 25,15.5 25.8,15.1 
					"/>
		<path d="M26,16.6l-0.2-1l-1-0.1l0.9-0.4l-0.2-1l0.7,0.7l0.9-0.4l-0.4,0.9l0.7,0.7l-1-0.1L26,16.6z M25,15.5l0.9,0.1l0.1,0.9
			l0.4-0.8h0l0.9,0.1l-0.6-0.6l0.4-0.8l-0.8,0.4l-0.6-0.6l0.1,0.9l0,0L25,15.5z"/>
		<polygon class="st2" points="22.3,16.5 23.1,17 23.8,16.3 23.6,17.3 24.4,17.7 23.4,17.8 23.2,18.7 22.9,17.9 21.9,17.9 
			22.6,17.3 		"/>
		<path d="M23.2,18.8l-0.4-0.9l-1,0.1l0.7-0.6l-0.4-0.9l0.8,0.5l0.7-0.6l-0.2,0.9l0.8,0.5l-1,0.1L23.2,18.8z M22.9,17.8L22.9,17.8
			l0.4,0.8l0.2-0.9l0.9-0.1l-0.8-0.4l0.2-0.9L23.1,17l0,0l-0.7-0.4l0.3,0.8l0,0L22,17.9L22.9,17.8z"/>
		<polygon class="st2" points="19.6,19.5 20.4,19.8 21,19 21,20 21.9,20.2 21,20.5 21,21.4 20.5,20.7 19.6,21 20.1,20.2 		"/>
		<path d="M21,21.5l-0.6-0.8L19.5,21l0.6-0.8l-0.6-0.8l0.9,0.3L21,19l0,1l0.9,0.3L21,20.5L21,21.5z M20.5,20.7l0.5,0.7l0-0.9
			l0.8-0.3L21,20l0,0l0-0.9l-0.5,0.7l0,0l-0.8-0.3l0.5,0.7L19.6,21L20.5,20.7z"/>
		<g>
			<path class="st2" d="M16.2,9.8c0,1.8,1.5,3.2,3.2,3.2c1.8,0,3.2-1.4,3.2-3.2V5.7h-6.4V9.8z"/>
			<path d="M19.4,13.1c-1.8,0-3.3-1.5-3.3-3.2V5.6h6.5v4.2C22.6,11.6,21.2,13.1,19.4,13.1 M16.2,5.7v4.1c0,1.8,1.4,3.2,3.2,3.2
				c1.8,0,3.2-1.4,3.2-3.2V5.7H16.2z"/>
			<path class="st2" d="M17.7,9.6c0,1,0.8,1.9,1.7,1.9c1,0,1.7-0.9,1.7-1.9V7.2h-3.5V9.6z"/>
			<path d="M19.4,11.6c-1,0-1.8-0.9-1.8-1.9V7.2h3.5v2.5C21.1,10.7,20.4,11.6,19.4,11.6 M17.7,7.2v2.4c0,1,0.8,1.9,1.7,1.9
				c0.9,0,1.7-0.8,1.7-1.9V7.2H17.7z"/>
			<rect x="17.2" y="5.9" class="st2" width="0.2" height="0.5"/>
			<path d="M17.4,6.4h-0.2V5.9h0.2V6.4z M17.2,6.4h0.2V5.9h-0.2V6.4z"/>
			<rect x="16.8" y="5.9" class="st2" width="0.2" height="0.5"/>
			<path d="M17,6.4h-0.2V5.9H17V6.4z M16.8,6.4H17V5.9h-0.2V6.4z"/>
			<rect x="16.4" y="5.9" class="st2" width="0.2" height="0.5"/>
			<path d="M16.6,6.4h-0.2V5.9h0.2V6.4z M16.4,6.4h0.2V5.9h-0.2V6.4z"/>
			<rect x="16.8" y="5.9" class="st2" width="0.3" height="0.1"/>
			<path d="M17.1,6h-0.3V5.9h0.3V6z M16.8,6H17V5.9L16.8,6L16.8,6z"/>
			<rect x="16.4" y="6.1" class="st2" width="0.9" height="0.8"/>
			<path d="M17.4,6.9h-1V6.1h1V6.9z M16.4,6.9h0.9V6.1h-0.9V6.9z"/>
			<rect x="16.4" y="6.3" class="st2" width="1" height="0.1"/>
			<path d="M17.4,6.4h-1.1V6.3h1.1V6.4z M16.4,6.4h1V6.3L16.4,6.4L16.4,6.4z"/>
			<rect x="16.4" y="6.9" class="st2" width="1" height="0.1"/>
			<path d="M17.4,7h-1.1V6.9h1.1V7z M16.4,7h1V6.9L16.4,7L16.4,7z"/>
			<path class="st2" d="M16.7,6.9V6.7c0-0.1,0.1-0.2,0.2-0.2c0.1,0,0.2,0.1,0.2,0.2v0.2H16.7z"/>
			<path d="M17.2,6.9h-0.5V6.7c0-0.1,0.1-0.2,0.2-0.2c0.1,0,0.3,0.1,0.3,0.2V6.9z M16.7,6.9h0.5V6.7c0-0.1-0.1-0.2-0.2-0.2
				c-0.1,0-0.2,0.1-0.2,0.2V6.9z"/>
			<path class="st2" d="M16.8,6.9V6.8c0-0.1,0.1-0.2,0.1-0.2c0.1,0,0.1,0.1,0.1,0.2v0.1H16.8z"/>
			<path d="M17.1,6.9h-0.3V6.8c0-0.1,0.1-0.2,0.2-0.2c0.1,0,0.2,0.1,0.2,0.2V6.9z M16.8,6.9H17V6.8c0-0.1-0.1-0.2-0.1-0.2
				c-0.1,0-0.1,0.1-0.1,0.2V6.9z"/>
			<rect x="17.1" y="5.9" class="st2" width="0.3" height="0.1"/>
			<path d="M17.4,6h-0.3V5.9h0.3V6z M17.2,6h0.3V5.9L17.2,6L17.2,6z"/>
			<rect x="16.4" y="5.9" class="st2" width="0.3" height="0.1"/>
			<path d="M16.7,6h-0.3V5.9h0.3V6z M16.4,6h0.3V5.9L16.4,6L16.4,6z"/>
			<rect x="22.1" y="5.9" class="st2" width="0.2" height="0.5"/>
			<path d="M22.3,6.4h-0.2V5.9h0.2V6.4z M22.2,6.4h0.2V5.9h-0.2V6.4z"/>
			<rect x="21.8" y="5.9" class="st2" width="0.2" height="0.5"/>
			<path d="M22,6.4h-0.2V5.9H22V6.4z M21.8,6.4h0.2V5.9h-0.2V6.4z"/>
			<rect x="21.4" y="5.9" class="st2" width="0.2" height="0.5"/>
			<path d="M21.6,6.4h-0.2V5.9h0.2V6.4z M21.4,6.4h0.2V5.9h-0.2V6.4z"/>
			<rect x="21.7" y="5.9" class="st2" width="0.3" height="0.1"/>
			<path d="M22,6h-0.3V5.9H22V6z M21.7,6H22V5.9L21.7,6L21.7,6z"/>
			<rect x="21.4" y="6.1" class="st2" width="0.9" height="0.8"/>
			<path d="M22.3,6.9h-1V6.1h1V6.9z M21.4,6.9h0.9V6.1h-0.9V6.9z"/>
			<rect x="21.3" y="6.3" class="st2" width="1" height="0.1"/>
			<path d="M22.4,6.4h-1.1V6.3h1.1V6.4z M21.4,6.4h1V6.3L21.4,6.4L21.4,6.4z"/>
			<rect x="21.3" y="6.9" class="st2" width="1" height="0.1"/>
			<path d="M22.4,7h-1.1V6.9h1.1V7z M21.4,7h1V6.9L21.4,7L21.4,7z"/>
			<path class="st2" d="M21.6,6.9V6.7c0-0.1,0.1-0.2,0.2-0.2c0.1,0,0.2,0.1,0.2,0.2v0.2H21.6z"/>
			<path d="M22.1,6.9h-0.5V6.7c0-0.1,0.1-0.2,0.3-0.2c0.1,0,0.3,0.1,0.3,0.2V6.9z M21.6,6.9h0.5V6.7c0-0.1-0.1-0.2-0.2-0.2
				c-0.1,0-0.2,0.1-0.2,0.2V6.9z"/>
			<path class="st2" d="M21.7,6.9V6.8c0-0.1,0.1-0.2,0.1-0.2c0.1,0,0.1,0.1,0.1,0.2v0.1H21.7z"/>
			<path d="M22,6.9h-0.3V6.8c0-0.1,0.1-0.2,0.2-0.2c0.1,0,0.2,0.1,0.2,0.2V6.9z M21.7,6.9H22V6.8c0-0.1-0.1-0.2-0.1-0.2
				c-0.1,0-0.1,0.1-0.1,0.2V6.9z"/>
			<rect x="22.1" y="5.9" class="st2" width="0.3" height="0.1"/>
			<path d="M22.4,6h-0.3V5.9h0.3V6z M22.1,6h0.3V5.9L22.1,6L22.1,6z"/>
			<rect x="21.3" y="5.9" class="st2" width="0.3" height="0.1"/>
			<path d="M21.6,6h-0.3V5.9h0.3V6z M21.4,6h0.3V5.9L21.4,6L21.4,6z"/>
			<rect x="19.7" y="5.9" class="st2" width="0.2" height="0.5"/>
			<path d="M19.9,6.4h-0.2V5.9h0.2V6.4z M19.7,6.4h0.2V5.9h-0.2V6.4z"/>
			<rect x="19.3" y="5.9" class="st2" width="0.2" height="0.5"/>
			<path d="M19.5,6.4h-0.2V5.9h0.2V6.4z M19.3,6.4h0.2V5.9h-0.2V6.4z"/>
			<rect x="18.9" y="5.9" class="st2" width="0.2" height="0.5"/>
			<path d="M19.1,6.4h-0.2V5.9h0.2V6.4z M18.9,6.4h0.2V5.9h-0.2V6.4z"/>
			<rect x="19.3" y="5.9" class="st2" width="0.3" height="0.1"/>
			<path d="M19.5,6h-0.3V5.9h0.3V6z M19.3,6h0.3V5.9L19.3,6L19.3,6z"/>
			<rect x="18.9" y="6.1" class="st2" width="0.9" height="0.8"/>
			<path d="M19.9,6.9h-1V6.1h1V6.9z M18.9,6.9h0.9V6.1h-0.9V6.9z"/>
			<rect x="18.9" y="6.3" class="st2" width="1" height="0.1"/>
			<path d="M19.9,6.4h-1.1V6.3h1.1V6.4z M18.9,6.4h1V6.3L18.9,6.4L18.9,6.4z"/>
			<rect x="18.9" y="6.9" class="st2" width="1" height="0.1"/>
			<path d="M19.9,7h-1.1V6.9h1.1V7z M18.9,7h1V6.9L18.9,7L18.9,7z"/>
			<path class="st2" d="M19.2,6.9V6.7c0-0.1,0.1-0.2,0.2-0.2c0.1,0,0.2,0.1,0.2,0.2v0.2H19.2z"/>
			<path d="M19.6,6.9h-0.5V6.7c0-0.1,0.1-0.2,0.3-0.2c0.1,0,0.3,0.1,0.3,0.2V6.9z M19.2,6.9h0.5V6.7c0-0.1-0.1-0.2-0.2-0.2
				c-0.1,0-0.2,0.1-0.2,0.2V6.9z"/>
			<path class="st2" d="M19.3,6.9V6.8c0-0.1,0.1-0.2,0.1-0.2c0.1,0,0.1,0.1,0.1,0.2v0.1H19.3z"/>
			<path d="M19.6,6.9h-0.3V6.8c0-0.1,0.1-0.2,0.2-0.2c0.1,0,0.2,0.1,0.2,0.2V6.9z M19.3,6.9h0.3V6.8c0-0.1-0.1-0.2-0.1-0.2
				c-0.1,0-0.1,0.1-0.1,0.2V6.9z"/>
			<rect x="19.6" y="5.9" class="st2" width="0.3" height="0.1"/>
			<path d="M19.9,6h-0.3V5.9h0.3V6z M19.6,6h0.3V5.9L19.6,6L19.6,6z"/>
			<rect x="18.9" y="5.9" class="st2" width="0.3" height="0.1"/>
			<path d="M19.2,6h-0.3V5.9h0.3V6z M18.9,6h0.3V5.9L18.9,6L18.9,6z"/>
			<rect x="17.2" y="8.8" class="st2" width="0.2" height="0.5"/>
			<path d="M17.4,9.3h-0.2V8.8h0.2V9.3z M17.2,9.3h0.2V8.9h-0.2V9.3z"/>
			<rect x="16.8" y="8.8" class="st2" width="0.2" height="0.5"/>
			<path d="M17,9.3h-0.2V8.8H17V9.3z M16.8,9.3H17V8.9h-0.2V9.3z"/>
			<rect x="16.4" y="8.8" class="st2" width="0.2" height="0.5"/>
			<path d="M16.6,9.3h-0.2V8.8h0.2V9.3z M16.4,9.3h0.2V8.9h-0.2V9.3z"/>
			<rect x="16.8" y="8.8" class="st2" width="0.3" height="0.1"/>
			<path d="M17.1,8.9h-0.3V8.8h0.3V8.9z M16.8,8.9H17V8.8L16.8,8.9L16.8,8.9z"/>
			<rect x="16.4" y="9.1" class="st2" width="0.9" height="0.8"/>
			<path d="M17.4,9.8h-1V9h1V9.8z M16.4,9.8h0.9V9.1h-0.9V9.8z"/>
			<rect x="16.4" y="9.2" class="st2" width="1" height="0.1"/>
			<path d="M17.4,9.3h-1.1V9.2h1.1V9.3z M16.4,9.3h1V9.2L16.4,9.3L16.4,9.3z"/>
			<rect x="16.4" y="9.8" class="st2" width="1" height="0.1"/>
			<path d="M17.4,9.9h-1.1V9.8h1.1V9.9z M16.4,9.9h1V9.8L16.4,9.9L16.4,9.9z"/>
			<path class="st2" d="M16.7,9.8V9.6c0-0.1,0.1-0.2,0.2-0.2c0.1,0,0.2,0.1,0.2,0.2v0.2H16.7z"/>
			<path d="M17.2,9.8h-0.5V9.6c0-0.1,0.1-0.2,0.2-0.2c0.1,0,0.3,0.1,0.3,0.2V9.8z M16.7,9.8h0.5V9.6c0-0.1-0.1-0.2-0.2-0.2
				c-0.1,0-0.2,0.1-0.2,0.2V9.8z"/>
			<path class="st2" d="M16.8,9.8V9.7c0-0.1,0.1-0.2,0.1-0.2c0.1,0,0.1,0.1,0.1,0.2v0.1H16.8z"/>
			<path d="M17.1,9.8h-0.3V9.7c0-0.1,0.1-0.2,0.2-0.2c0.1,0,0.2,0.1,0.2,0.2V9.8z M16.8,9.8H17V9.7c0-0.1-0.1-0.2-0.1-0.2
				c-0.1,0-0.1,0.1-0.1,0.2V9.8z"/>
			<rect x="17.1" y="8.8" class="st2" width="0.3" height="0.1"/>
			<path d="M17.4,8.9h-0.3V8.8h0.3V8.9z M17.2,8.9h0.3V8.8L17.2,8.9L17.2,8.9z"/>
			<rect x="16.4" y="8.8" class="st2" width="0.3" height="0.1"/>
			<path d="M16.7,8.9h-0.3V8.8h0.3V8.9z M16.4,8.9h0.3V8.8L16.4,8.9L16.4,8.9z"/>
			<rect x="21.4" y="8.8" class="st2" width="0.2" height="0.5"/>
			<path d="M21.6,9.3h-0.2V8.8h0.2V9.3z M21.4,9.3h0.2V8.9h-0.2V9.3z"/>
			<rect x="21.8" y="8.8" class="st2" width="0.2" height="0.5"/>
			<path d="M22,9.3h-0.2V8.8H22V9.3z M21.8,9.3H22V8.9h-0.2V9.3z"/>
			<rect x="22.2" y="8.8" class="st2" width="0.2" height="0.5"/>
			<path d="M22.4,9.3h-0.2V8.8h0.2V9.3z M22.2,9.3h0.2V8.9h-0.2V9.3z"/>
			<rect x="21.7" y="8.8" class="st2" width="0.3" height="0.1"/>
			<path d="M22,8.9h-0.3V8.8H22V8.9z M21.8,8.9H22V8.8L21.8,8.9L21.8,8.9z"/>
			<rect x="21.4" y="9.1" class="st2" width="0.9" height="0.8"/>
			<path d="M22.4,9.8h-1V9h1V9.8z M21.4,9.8h0.9V9.1h-0.9V9.8z"/>
			<rect x="21.4" y="9.2" class="st2" width="1" height="0.1"/>
			<path d="M22.4,9.3h-1.1V9.2h1.1V9.3z M21.4,9.3h1V9.2L21.4,9.3L21.4,9.3z"/>
			<rect x="21.4" y="9.8" class="st2" width="1" height="0.1"/>
			<path d="M22.4,9.9h-1.1V9.8h1.1V9.9z M21.4,9.9h1V9.8L21.4,9.9L21.4,9.9z"/>
			<path class="st2" d="M22.1,9.8V9.6c0-0.1-0.1-0.2-0.2-0.2c-0.1,0-0.2,0.1-0.2,0.2v0.2H22.1z"/>
			<path d="M22.1,9.8h-0.5V9.6c0-0.1,0.1-0.2,0.3-0.2c0.1,0,0.2,0.1,0.2,0.2V9.8z M21.6,9.8h0.5V9.6c0-0.1-0.1-0.2-0.2-0.2
				c-0.1,0-0.2,0.1-0.2,0.2V9.8z"/>
			<path class="st2" d="M22,9.8V9.7c0-0.1-0.1-0.2-0.1-0.2c-0.1,0-0.1,0.1-0.1,0.2v0.1H22z"/>
			<path d="M22,9.8h-0.3V9.7c0-0.1,0.1-0.2,0.2-0.2C22,9.5,22,9.6,22,9.7V9.8z M21.7,9.8H22V9.7c0-0.1-0.1-0.2-0.1-0.2
				c-0.1,0-0.1,0.1-0.1,0.2V9.8z"/>
			<rect x="21.4" y="8.8" class="st2" width="0.3" height="0.1"/>
			<path d="M21.7,8.9h-0.3V8.8h0.3V8.9z M21.4,8.9h0.3V8.8L21.4,8.9L21.4,8.9z"/>
			<rect x="22.1" y="8.8" class="st2" width="0.3" height="0.1"/>
			<path d="M22.4,8.9h-0.3V8.8h0.3V8.9z M22.1,8.9h0.3V8.8L22.1,8.9L22.1,8.9z"/>
			<rect x="18" y="11.2" transform="matrix(0.5516 -0.8341 0.8341 0.5516 -1.4093 20.1587)" class="st2" width="0.2" height="0.5"/>
			<path d="M18.2,11.6l-0.4-0.3l0.1-0.2l0.4,0.3L18.2,11.6z M17.8,11.3l0.4,0.2l0.1-0.1l-0.4-0.2L17.8,11.3z"/>
			<polygon class="st2" points="18,11.9 17.6,11.7 17.7,11.5 18.1,11.8 			"/>
			<path d="M18,11.9l-0.4-0.3l0.1-0.2l0.4,0.3L18,11.9z M17.6,11.7l0.4,0.2l0.1-0.1l-0.4-0.2L17.6,11.7z"/>
			
				<rect x="17.5" y="11.8" transform="matrix(0.5507 -0.8347 0.8347 0.5507 -2.112 20.1145)" class="st2" width="0.2" height="0.5"/>
			<path d="M17.8,12.2L17.4,12l0.1-0.2l0.4,0.3L17.8,12.2z M17.4,12l0.4,0.2l0.1-0.1l-0.4-0.2L17.4,12z"/>
			<polygon class="st2" points="17.8,11.5 17.7,11.4 17.5,11.7 17.6,11.7 			"/>
			<path d="M17.6,11.7l-0.1-0.1l0.2-0.2l0.1,0.1L17.6,11.7z M17.5,11.7L17.5,11.7l0.2-0.2l-0.1-0.1L17.5,11.7z"/>
			<polygon class="st2" points="18.7,11.7 18.1,11.3 17.6,12.1 18.2,12.5 			"/>
			<path d="M18.2,12.5l-0.7-0.4l0.5-0.8l0.7,0.4L18.2,12.5z M17.6,12.1l0.6,0.4l0.5-0.8l-0.6-0.4L17.6,12.1z"/>
			<polygon class="st2" points="18.3,11.4 18.2,11.4 17.7,12.2 17.8,12.3 			"/>
			<path d="M17.8,12.3l-0.1-0.1l0.6-0.9l0.1,0.1l0,0L17.8,12.3z M17.7,12.2L17.7,12.2l0.6-0.8l-0.1,0L17.7,12.2z"/>
			<polygon class="st2" points="18.8,11.7 18.8,11.7 18.2,12.6 18.3,12.6 			"/>
			<path d="M18.3,12.6l-0.1-0.1l0.6-0.9l0.1,0.1l0,0L18.3,12.6z M18.2,12.6L18.2,12.6l0.6-0.8l-0.1,0L18.2,12.6z"/>
			<path class="st2" d="M18.3,12.3c0,0-0.1-0.1-0.2-0.1c-0.1-0.1-0.1-0.2-0.1-0.3c0.1-0.1,0.2-0.1,0.3-0.1c0.1,0,0.2,0.1,0.2,0.1
				L18.3,12.3z"/>
			<path d="M18.3,12.3L18.3,12.3c0,0-0.1-0.1-0.2-0.1c-0.1,0-0.1-0.1-0.1-0.2c0-0.1,0-0.1,0-0.2c0.1-0.1,0.2-0.2,0.3-0.1
				c0.1,0,0.2,0.1,0.2,0.1l0,0L18.3,12.3z M18.3,11.8c-0.1,0-0.1,0-0.2,0.1c0,0.1,0,0.1,0,0.2c0,0.1,0,0.1,0.1,0.1
				c0.1,0,0.1,0.1,0.1,0.1l0.3-0.4c0,0-0.1-0.1-0.1-0.1C18.4,11.8,18.4,11.8,18.3,11.8"/>
			<path class="st2" d="M18.4,12.2c0,0-0.1,0-0.1-0.1c-0.1-0.1-0.1-0.2-0.1-0.2c0-0.1,0.1-0.1,0.2,0c0.1,0,0.1,0.1,0.1,0.1
				L18.4,12.2z"/>
			<path d="M18.4,12.3L18.4,12.3c0,0-0.1-0.1-0.1-0.1c-0.1-0.1-0.1-0.2-0.1-0.2c0-0.1,0.2-0.1,0.2,0c0.1,0,0.1,0.1,0.1,0.1l0,0
				L18.4,12.3z M18.3,11.9c0,0-0.1,0-0.1,0.1c0,0.1,0,0.2,0.1,0.2c0,0,0.1,0.1,0.1,0.1l0.2-0.2c0,0-0.1,0-0.1-0.1
				C18.4,11.9,18.4,11.9,18.3,11.9"/>
			<polygon class="st2" points="17.9,11.1 18,11.2 17.8,11.4 17.7,11.4 			"/>
			<path d="M17.8,11.4l-0.1-0.1l0.2-0.2l0.1,0.1L17.8,11.4z M17.7,11.4L17.7,11.4l0.2-0.2l-0.1,0L17.7,11.4z"/>
			<polygon class="st2" points="17.4,12 17.3,12 17.5,11.7 17.6,11.8 			"/>
			<path d="M17.4,12.1L17.3,12l0.2-0.2l0.1,0.1L17.4,12.1z M17.3,12L17.3,12l0.2-0.2l-0.1,0L17.3,12z"/>
			<rect x="20.5" y="11.3" transform="matrix(0.8341 -0.5516 0.5516 0.8341 -2.8422 13.33)" class="st2" width="0.5" height="0.2"/>
			<path d="M20.6,11.6l-0.1-0.2l0.4-0.3l0.1,0.2L20.6,11.6z M20.5,11.4l0.1,0.1l0.4-0.2l-0.1-0.1L20.5,11.4z"/>
			
				<rect x="20.7" y="11.6" transform="matrix(0.8347 -0.5508 0.5508 0.8347 -2.983 13.4726)" class="st2" width="0.5" height="0.2"/>
			<path d="M20.8,11.9l-0.1-0.2l0.4-0.3l0.1,0.2L20.8,11.9z M20.7,11.8l0.1,0.1l0.4-0.2l-0.1-0.1L20.7,11.8z"/>
			<rect x="20.9" y="11.9" transform="matrix(0.8341 -0.5516 0.5516 0.8341 -3.12 13.6642)" class="st2" width="0.5" height="0.2"/>
			<path d="M21,12.2l-0.1-0.2l0.4-0.3l0.1,0.2L21,12.2z M20.9,12.1l0.1,0.1l0.4-0.2l-0.1-0.1L20.9,12.1z"/>
			<rect x="21.1" y="11.4" transform="matrix(0.8325 -0.554 0.554 0.8325 -2.8753 13.6501)" class="st2" width="0.1" height="0.3"/>
			<path d="M21.2,11.7L21,11.5l0.1-0.1l0.2,0.2L21.2,11.7z M21,11.5l0.1,0.2l0.1,0L21,11.5L21,11.5z"/>
			<rect x="20.3" y="11.4" transform="matrix(0.8332 -0.553 0.553 0.8332 -3.1419 13.4014)" class="st2" width="0.8" height="0.9"/>
			<path d="M20.6,12.5L20,11.7l0.7-0.4l0.5,0.8L20.6,12.5z M20.1,11.7l0.5,0.8l0.6-0.4l-0.5-0.8L20.1,11.7z"/>
			<polygon class="st2" points="20.5,11.4 20.5,11.4 21.1,12.2 21,12.3 			"/>
			<path d="M21,12.3l-0.6-0.9l0.1-0.1l0,0l0.6,0.9L21,12.3z M20.5,11.4l0.6,0.8l0.1,0L20.5,11.4L20.5,11.4z"/>
			<polygon class="st2" points="19.9,11.7 20,11.7 20.6,12.6 20.5,12.6 			"/>
			<path d="M20.5,12.6L20.5,12.6l-0.6-0.9l0.1-0.1l0,0l0.6,0.9L20.5,12.6z M20,11.8l0.6,0.8l0.1,0L20,11.8L20,11.8z"/>
			<path class="st2" d="M20.5,12.3c0,0,0.1-0.1,0.2-0.1c0.1-0.1,0.1-0.2,0.1-0.3c-0.1-0.1-0.2-0.1-0.3-0.1c-0.1,0-0.2,0.1-0.2,0.1
				L20.5,12.3z"/>
			<path d="M20.4,12.3l-0.3-0.4l0.2-0.1c0.1-0.1,0.3,0,0.3,0.1c0,0.1,0.1,0.1,0,0.2c0,0.1,0,0.1-0.1,0.2
				C20.5,12.3,20.5,12.3,20.4,12.3L20.4,12.3z M20.2,11.9l0.3,0.4c0,0,0.1-0.1,0.1-0.1c0,0,0.1-0.1,0.1-0.1c0-0.1,0-0.1,0-0.2
				c-0.1-0.1-0.2-0.1-0.3-0.1L20.2,11.9z"/>
			<path class="st2" d="M20.4,12.2c0,0,0.1,0,0.1-0.1c0.1-0.1,0.1-0.2,0.1-0.2c0-0.1-0.1-0.1-0.2,0c-0.1,0-0.1,0.1-0.1,0.1
				L20.4,12.2z"/>
			<path d="M20.4,12.3L20.2,12l0,0c0,0,0.1,0,0.1-0.1c0,0,0.1,0,0.2,0c0,0,0.1,0,0.1,0.1c0,0,0,0.1,0,0.1c0,0.1,0,0.1-0.1,0.1
				C20.5,12.2,20.4,12.3,20.4,12.3L20.4,12.3z M20.2,12l0.2,0.2c0,0,0.1,0,0.1-0.1c0,0,0.1-0.1,0.1-0.1c0,0,0-0.1,0-0.1
				c0,0,0,0-0.1-0.1c0,0-0.1,0-0.1,0C20.3,12,20.3,12,20.2,12"/>
			
				<rect x="20.9" y="11.1" transform="matrix(0.8322 -0.5545 0.5545 0.8322 -2.7359 13.4957)" class="st2" width="0.1" height="0.3"/>
			<path d="M21,11.4l-0.2-0.2l0.1-0.1l0.2,0.2L21,11.4z M20.8,11.2l0.1,0.2l0.1,0L20.8,11.2L20.8,11.2z"/>
			<polygon class="st2" points="21.4,12 21.5,12 21.3,11.7 21.2,11.8 			"/>
			<path d="M21.4,12.1l-0.2-0.2l0.1-0.1l0.2,0.2L21.4,12.1z M21.2,11.8l0.1,0.2l0.1,0L21.2,11.8L21.2,11.8z"/>
			<path class="st7" d="M19,9.4c0,0.2,0.2,0.4,0.4,0.4c0.2,0,0.4-0.2,0.4-0.4V8.8H19V9.4z"/>
			<path class="st7" d="M19,10.7c0,0.2,0.2,0.4,0.4,0.4c0.2,0,0.4-0.2,0.4-0.4v-0.6H19V10.7z"/>
			<path class="st7" d="M17.9,9.4c0,0.2,0.2,0.4,0.4,0.4c0.2,0,0.4-0.2,0.4-0.4V8.8h-0.8V9.4z"/>
			<path class="st7" d="M19,8.1c0,0.2,0.2,0.4,0.4,0.4c0.2,0,0.4-0.2,0.4-0.4V7.5H19V8.1z"/>
			<path class="st7" d="M20.9,9.4c0,0.2-0.2,0.4-0.4,0.4c-0.2,0-0.4-0.2-0.4-0.4V8.8h0.8V9.4z"/>
			<path class="st7" d="M19.3,9.3C19.3,9.2,19.4,9.2,19.3,9.3c0.1-0.1,0.2,0,0.2,0C19.5,9.3,19.4,9.3,19.3,9.3
				C19.4,9.3,19.3,9.3,19.3,9.3"/>
			<path class="st7" d="M19.2,9.1C19.2,9.1,19.3,9.1,19.2,9.1c0.1-0.1,0-0.2,0-0.2C19.2,8.9,19.1,9,19.2,9.1
				C19.1,9.1,19.2,9.1,19.2,9.1"/>
			<path class="st7" d="M19.6,9.1C19.5,9.1,19.5,9.1,19.6,9.1c-0.1-0.1,0-0.2,0-0.2C19.6,8.9,19.7,9,19.6,9.1
				C19.7,9.1,19.6,9.1,19.6,9.1"/>
			<path class="st7" d="M19.1,9.5C19.1,9.5,19.2,9.4,19.1,9.5c0.1-0.1,0.2,0,0.2,0C19.3,9.6,19.2,9.6,19.1,9.5
				C19.2,9.6,19.1,9.6,19.1,9.5"/>
			<path class="st7" d="M19.5,9.5C19.5,9.5,19.5,9.4,19.5,9.5c0.1-0.1,0.2,0,0.2,0C19.7,9.6,19.6,9.6,19.5,9.5
				C19.5,9.6,19.5,9.6,19.5,9.5"/>
			<path class="st7" d="M19.4,10.7C19.4,10.7,19.5,10.6,19.4,10.7c0.1-0.1,0-0.2,0-0.2C19.4,10.5,19.3,10.6,19.4,10.7
				C19.3,10.6,19.4,10.7,19.4,10.7"/>
			<path class="st7" d="M19.1,10.3C19.1,10.3,19.2,10.3,19.1,10.3c0.1-0.1,0.2,0,0.2,0C19.3,10.4,19.2,10.4,19.1,10.3
				C19.2,10.4,19.1,10.4,19.1,10.3"/>
			<path class="st7" d="M19.5,10.3C19.5,10.3,19.5,10.3,19.5,10.3c0.1-0.1,0.2,0,0.2,0C19.7,10.4,19.6,10.4,19.5,10.3
				C19.5,10.4,19.5,10.4,19.5,10.3"/>
			<path class="st7" d="M19.1,10.9C19.1,10.8,19.2,10.8,19.1,10.9c0.1-0.1,0.2,0,0.2,0C19.3,10.9,19.2,10.9,19.1,10.9
				C19.2,10.9,19.1,10.9,19.1,10.9"/>
			<path class="st7" d="M19.5,10.9C19.5,10.8,19.5,10.8,19.5,10.9c0.1-0.1,0.2,0,0.2,0C19.7,10.9,19.6,10.9,19.5,10.9
				C19.5,10.9,19.5,10.9,19.5,10.9"/>
			<path class="st7" d="M19.3,7.9C19.3,7.9,19.4,7.9,19.3,7.9c0.1-0.1,0.2,0,0.2,0C19.5,8,19.4,8,19.3,7.9C19.4,8,19.3,8,19.3,7.9"
				/>
			<path class="st7" d="M19.1,7.7C19.1,7.6,19.2,7.6,19.1,7.7c0.1-0.1,0.2,0,0.2,0C19.3,7.7,19.2,7.7,19.1,7.7
				C19.2,7.7,19.1,7.7,19.1,7.7"/>
			<path class="st7" d="M19.5,7.7C19.5,7.6,19.5,7.6,19.5,7.7c0.1-0.1,0.2,0,0.2,0C19.7,7.7,19.6,7.7,19.5,7.7
				C19.5,7.7,19.5,7.7,19.5,7.7"/>
			<path class="st7" d="M19.1,8.2C19.1,8.1,19.2,8.1,19.1,8.2c0.1-0.1,0.2,0,0.2,0C19.3,8.2,19.2,8.3,19.1,8.2
				C19.2,8.3,19.1,8.2,19.1,8.2"/>
			<path class="st7" d="M19.5,8.2C19.5,8.1,19.5,8.1,19.5,8.2c0.1-0.1,0.2,0,0.2,0C19.7,8.2,19.6,8.3,19.5,8.2
				C19.5,8.3,19.5,8.2,19.5,8.2"/>
			<path class="st7" d="M18.2,9.3C18.2,9.2,18.3,9.2,18.2,9.3c0.1-0.1,0.2,0,0.2,0C18.4,9.3,18.4,9.3,18.2,9.3
				C18.3,9.3,18.2,9.3,18.2,9.3"/>
			<path class="st7" d="M18.1,9.1C18.2,9.1,18.2,9.1,18.1,9.1c0.1-0.1,0-0.2,0-0.2C18.1,8.9,18,9,18.1,9.1C18,9.1,18.1,9.1,18.1,9.1
				"/>
			<path class="st7" d="M18.5,9.1C18.5,9.1,18.4,9.1,18.5,9.1c-0.1-0.1,0-0.2,0-0.2C18.6,8.9,18.6,9,18.5,9.1
				C18.6,9.1,18.6,9.1,18.5,9.1"/>
			<path class="st7" d="M18.1,9.4C18.2,9.4,18.2,9.5,18.1,9.4c0.1,0.1,0,0.2,0,0.2C18.1,9.6,18,9.6,18.1,9.4
				C18,9.5,18.1,9.4,18.1,9.4"/>
			<path class="st7" d="M18.5,9.4C18.5,9.4,18.4,9.5,18.5,9.4c-0.1,0.1,0,0.2,0,0.2C18.6,9.6,18.6,9.6,18.5,9.4
				C18.6,9.5,18.6,9.4,18.5,9.4"/>
			<path class="st7" d="M20.4,9.3C20.4,9.2,20.4,9.2,20.4,9.3c0.1-0.1,0.2,0,0.2,0C20.6,9.3,20.5,9.3,20.4,9.3
				C20.4,9.3,20.4,9.3,20.4,9.3"/>
			<path class="st7" d="M20.7,9.1C20.6,9.1,20.6,9.1,20.7,9.1c-0.1-0.1,0-0.2,0-0.2C20.7,8.9,20.7,9,20.7,9.1
				C20.7,9.1,20.7,9.1,20.7,9.1"/>
			<path class="st7" d="M20.3,9.1C20.3,9.1,20.4,9.1,20.3,9.1c0.1-0.1,0-0.2,0-0.2C20.2,8.9,20.2,9,20.3,9.1
				C20.2,9.1,20.2,9.1,20.3,9.1"/>
			<path class="st7" d="M20.6,9.5C20.6,9.5,20.6,9.4,20.6,9.5c0.1-0.1,0.2,0,0.2,0C20.7,9.6,20.7,9.6,20.6,9.5
				C20.6,9.6,20.6,9.6,20.6,9.5"/>
			<path class="st7" d="M20.3,9.4C20.3,9.4,20.4,9.5,20.3,9.4c0.1,0.1,0,0.2,0,0.2C20.2,9.6,20.2,9.6,20.3,9.4
				C20.2,9.5,20.2,9.4,20.3,9.4"/>
		</g>
	</g>
</g>
</svg>
