<?xml version="1.0" encoding="utf-8"?>
<!-- Generator: Adobe Illustrator 23.0.4, SVG Export Plug-In . SVG Version: 6.00 Build 0)  -->
<svg version="1.1" id="Layer_1" xmlns="http://www.w3.org/2000/svg" xmlns:xlink="http://www.w3.org/1999/xlink" x="0px" y="0px"
	 viewBox="0 0 162.1 45.8" style="enable-background:new 0 0 162.1 45.8;" xml:space="preserve">
<style type="text/css">
	.st0{fill-rule:evenodd;clip-rule:evenodd;fill:#FFFFFF;}
	.st1{fill-rule:evenodd;clip-rule:evenodd;fill:none;stroke:#FFFFFF;}
	.st2{fill:#FFFFFF;}
	.st3{font-family:'Arial-BoldMT';}
	.st4{font-size:7px;}
	.st5{font-family:'ArialMT';}
	.st6{fill:none;stroke:#FFFFFF;stroke-width:8.300000e-02;}
	.st7{fill:#FFFFFF;stroke:#000000;stroke-width:6.779400e-02;}
	.st8{fill:#FFFFFF;stroke:#000000;stroke-width:3.673800e-02;}
</style>
<g>
	<g>
		<polygon class="st1" points="3.1,1 69,1 69,44.9 3.1,44.9 3.1,1 		"/>
		<polygon class="st0" points="34.6,10.5 36,9.5 37.4,10.5 36.9,8.9 38.3,7.9 36.6,7.9 36,6.2 35.5,7.9 33.7,7.9 35.2,8.9 
			34.6,10.5 		"/>
		<polygon class="st0" points="27.4,12.4 28.8,11.4 30.2,12.4 29.7,10.8 31.1,9.8 29.4,9.8 28.8,8.1 28.3,9.8 26.6,9.8 28,10.8 
			27.4,12.4 		"/>
		<polygon class="st0" points="23.6,13.4 23,15.1 21.3,15.1 22.7,16.1 22.2,17.7 23.6,16.7 25,17.7 24.4,16.1 25.8,15.1 24.1,15.1 
			23.6,13.4 		"/>
		<polygon class="st0" points="21.6,23.9 23,24.9 22.5,23.3 23.9,22.3 22.2,22.3 21.6,20.6 21.1,22.3 19.4,22.3 20.8,23.3 
			20.2,24.9 21.6,23.9 		"/>
		<polygon class="st0" points="24.1,29.5 23.6,27.8 23,29.5 21.3,29.5 22.7,30.5 22.2,32.1 23.6,31.1 25,32.1 24.4,30.5 25.8,29.5 
			24.1,29.5 		"/>
		<polygon class="st0" points="29.4,34.7 28.8,33.1 28.3,34.7 26.6,34.7 28,35.7 27.5,37.4 28.8,36.4 30.2,37.4 29.7,35.7 
			31.1,34.7 29.4,34.7 		"/>
		<polygon class="st0" points="36.6,36.6 36,35 35.5,36.6 33.7,36.6 35.2,37.7 34.6,39.3 36,38.3 37.4,39.3 36.9,37.7 38.3,36.6 
			36.6,36.6 		"/>
		<polygon class="st0" points="43.7,34.7 43.2,33.1 42.7,34.7 40.9,34.7 42.3,35.7 41.8,37.4 43.2,36.4 44.6,37.4 44.1,35.7 
			45.5,34.7 43.7,34.7 		"/>
		<polygon class="st0" points="49,29.5 48.5,27.8 47.9,29.5 46.2,29.5 47.6,30.5 47.1,32.1 48.5,31.1 49.9,32.1 49.3,30.5 
			50.7,29.5 49,29.5 		"/>
		<polygon class="st0" points="52.7,22.2 50.9,22.2 50.4,20.6 49.9,22.2 48.1,22.2 49.5,23.2 49,24.9 50.4,23.9 51.8,24.9 
			51.2,23.2 52.7,22.2 		"/>
		<polygon class="st0" points="47.1,17.7 48.5,16.7 49.9,17.7 49.3,16.1 50.7,15 49,15 48.5,13.4 47.9,15.1 46.2,15 47.6,16.1 
			47.1,17.7 		"/>
		<polygon class="st0" points="43.2,8.1 42.7,9.8 41,9.8 42.4,10.8 41.8,12.5 43.2,11.4 44.6,12.5 44.1,10.8 45.5,9.8 43.8,9.8 
			43.2,8.1 		"/>
	</g>
	<text transform="matrix(1 0 0 1 77.4414 11.3279)"><tspan x="0" y="0" class="st2 st3 st4">UNIÃO EUROPEIA</tspan><tspan x="0" y="19.4" class="st2 st5 st4">Fundo Europeu de</tspan><tspan x="0" y="27.8" class="st2 st5 st4">Desenvolvimento Regional</tspan></text>
</g>
</svg>
