<?xml version="1.0" encoding="utf-8"?>
<!-- Generator: Adobe Illustrator 23.0.4, SVG Export Plug-In . SVG Version: 6.00 Build 0)  -->
<svg version="1.1" id="Layer_1" xmlns="http://www.w3.org/2000/svg" xmlns:xlink="http://www.w3.org/1999/xlink" x="0px" y="0px"
	 viewBox="0 0 140.5 45.8" style="enable-background:new 0 0 140.5 45.8;" xml:space="preserve">
<style type="text/css">
	.st0{fill-rule:evenodd;clip-rule:evenodd;fill:#FFFFFF;}
	.st1{fill-rule:evenodd;clip-rule:evenodd;fill:none;stroke:#FFFFFF;}
	.st2{fill:#FFFFFF;}
	.st3{fill:none;stroke:#FFFFFF;stroke-width:8.300000e-02;}
	.st4{fill:#FFFFFF;stroke:#000000;stroke-width:6.779400e-02;}
	.st5{fill:#FFFFFF;stroke:#000000;stroke-width:3.673800e-02;}
</style>
<g>
	<g>
		<path class="st0" d="M67.1,13.5c-1,0.3-2-0.2-2.3-1.2c-0.3-0.9,0.3-2,1.2-2.2c1-0.3,2,0.2,2.3,1.2C68.6,12.2,68.1,13.2,67.1,13.5
			L67.1,13.5z M64.5,22.5c-0.8,0.6-2,0.4-2.5-0.4c-0.6-0.8-0.4-1.9,0.4-2.5c0.8-0.6,1.9-0.4,2.5,0.4C65.5,20.8,65.3,21.9,64.5,22.5
			L64.5,22.5z M61,18.3l-1.7-2.4l0.6-0.4l1.7,2.4L61,18.3L61,18.3z M58.6,24.4c-1,0-1.8-0.8-1.8-1.8c0-1,0.8-1.8,1.8-1.8
			c1,0,1.8,0.8,1.8,1.8C60.4,23.6,59.6,24.4,58.6,24.4L58.6,24.4z M55.4,17.8l1.8-2.3l0.5,0.4l-1.8,2.3L55.4,17.8L55.4,17.8z
			 M54.9,22c-0.6,0.8-1.7,0.9-2.5,0.3c-0.8-0.6-0.9-1.7-0.3-2.5c0.6-0.8,1.7-0.9,2.5-0.3C55.3,20.1,55.5,21.2,54.9,22L54.9,22z
			 M48.8,17.2c-0.3-1,0.3-2,1.2-2.3c1-0.3,2,0.3,2.3,1.2c0.3,1-0.3,2-1.2,2.3C50.1,18.7,49.1,18.1,48.8,17.2L48.8,17.2z M48.9,10.9
			c0.3-1,1.3-1.5,2.3-1.1c0.9,0.3,1.5,1.4,1.1,2.3C52,13,51,13.5,50,13.2C49.1,12.9,48.6,11.9,48.9,10.9L48.9,10.9z M52.6,5.9
			c0.8-0.6,1.9-0.4,2.5,0.4c0.6,0.8,0.4,1.9-0.4,2.5c-0.8,0.6-1.9,0.4-2.5-0.4C51.6,7.6,51.8,6.5,52.6,5.9L52.6,5.9z M56.9,15.1
			l-2.8,0.8l-0.2-0.7l2.8-0.8L56.9,15.1L56.9,15.1z M56.7,14L53.9,13l0.2-0.7l2.8,0.9L56.7,14L56.7,14z M56.1,10.2l1.7,2.4l-0.6,0.4
			l-1.7-2.4L56.1,10.2L56.1,10.2z M58.9,16V19h-0.7V16H58.9L58.9,16z M58.2,12.4V9.5h0.7v2.9H58.2L58.2,12.4z M58.6,4
			c1,0,1.8,0.8,1.8,1.8c0,1-0.8,1.8-1.8,1.8c-1,0-1.8-0.8-1.8-1.8C56.8,4.8,57.6,4,58.6,4L58.6,4z M61.7,10.7L59.9,13l-0.5-0.4
			l1.8-2.3L61.7,10.7L61.7,10.7z M63.2,13.2L60.4,14l-0.2-0.6l2.8-0.8L63.2,13.2L63.2,13.2z M62.3,6.4c0.6-0.8,1.7-0.9,2.5-0.3
			c0.8,0.6,0.9,1.7,0.3,2.5c-0.6,0.8-1.8,0.9-2.5,0.3C61.8,8.4,61.6,7.2,62.3,6.4L62.3,6.4z M58.6,1.8c-6.9,0-12.5,5.6-12.5,12.5
			c0,6.9,5.6,12.5,12.5,12.5c6.9,0,12.5-5.6,12.5-12.5C71,7.3,65.4,1.8,58.6,1.8L58.6,1.8z"/>
		<path class="st0" d="M15.1,15.8l-3-9.4l-2.9,9.4H15.1L15.1,15.8z M9,1.8h6.1l8.5,23.8h-5l-1.9-5.8H8l-1.9,5.8H1.2L9,1.8L9,1.8z"/>
		<path class="st0" d="M78.8,5.9v6.9h6.1c0.8,0,1.7-0.3,2.4-1c0.6-0.6,0.9-1.4,0.9-2.3c0-1-0.3-1.8-0.9-2.5c-0.7-0.6-1.5-1-2.4-1
			H78.8L78.8,5.9z M74.1,1.8h4.7h6.1c2.1,0,4,0.8,5.4,2.2c1.4,1.4,2.2,3.2,2.2,5.4c0,2-0.7,4-2.2,5.3c-0.8,0.8-1.8,1.4-2.8,1.8
			l5.3,9.1h-5l-5.1-8.7h-3.9v8.7h-4.7v-8.7v-4.1V5.9V1.8L74.1,1.8z"/>
		<polygon class="st0" points="113.6,1.8 113.6,6.1 100.8,6.1 100.8,11 109.3,11 109.3,15.4 100.8,15.4 100.8,21.3 113.9,21.3 
			113.9,25.6 100.8,25.6 96.2,25.6 96.2,1.8 113.6,1.8 		"/>
		<path class="st0" d="M136.7,7.9c-3.3-1.2-6.1-2.1-8.7-2.2c-1.5,0-3.2,0.4-4.5,1.1c-0.7,0.5-1.1,1.1-1.2,2c0,0.5,0,0.8,0.2,1
			c0.3,0.4,0.7,0.6,1.1,0.7c1.7,0.4,3.4,0.4,5.3,0.5h1.7c2,0.1,4,0.5,5.6,1.4c1.9,1.2,3.3,3.1,3,6.1c-0.5,5.5-4.6,7.4-9.6,7.4
			c-4.7,0-8.8-1.4-12.9-3.5l1.8-4.1c3.5,1.6,6.7,2.7,10.4,2.9c1,0.1,2,0,3-0.3c1.2-0.3,2.4-1,2.6-2.7c0.1-1.1-0.3-1.6-0.9-1.9
			c-0.8-0.5-1.9-0.7-3.3-0.8h-1.5c-1.4,0-2.9-0.2-4.5-0.4c-2-0.3-4.1-0.8-5.4-2.5c-0.9-1.1-1.4-2.4-1.2-4.1c0.1-2.6,1.6-4.4,3.4-5.5
			c2.1-1.4,4.9-1.7,7.1-1.7c1.4,0,2.8,0.2,4.5,0.7c1.6,0.4,3.2,0.9,5.3,1.8L136.7,7.9L136.7,7.9z"/>
		<path class="st0" d="M36.6,21.8c-4.4,0-7.9-3.5-7.9-7.9c0-4.3,3.5-8.2,7.9-8.2c2.4,0,4.3,1.1,5.9,2.3l3.1-2.8
			c-2.4-2.3-5.5-3.9-9-3.9c-6.7,0-12.2,5.9-12.2,12.5c0,4,2,7.5,5,9.7l-2.4,5.6l3.2,1.4l2.3-5.3c1.3,0.5,2.7,0.8,4.2,0.8
			c3.5,0,6.6-1.1,9-3.5l-3.1-3.1C40.9,21,38.9,21.8,36.6,21.8L36.6,21.8z"/>
	</g>
	<g>
		<g>
			<path class="st0" d="M18.5,41.7h7.9v2.7h-9.2h-1.5h-0.9c0-3.9,2.3-5.5,3.1-6c1.5-1,3.3-1.7,4.5-2.3c0.8-0.4,2.5-1.4,1-2.7
				c-0.7-0.6-1.8-0.6-2.6-0.6c-1.5,0-3.2,0.5-5.1,1.2l-0.8-2.3c1.3-0.5,2.2-0.8,3.2-1.1c1-0.2,1.8-0.4,2.7-0.4
				c1.3-0.1,3,0.2,4.2,0.9c1.1,0.7,2.3,2.2,1.8,4.2c-0.1,0.5-0.4,1.9-2.2,2.8C22.6,39,19.2,40.1,18.5,41.7L18.5,41.7z"/>
			<path class="st0" d="M40.6,37.1c0-2.6-2.2-4.8-4.8-4.8c-2.6,0-4.7,2.2-4.7,4.8c0,2.7,2.1,4.7,4.7,4.7
				C38.4,41.9,40.6,39.8,40.6,37.1L40.6,37.1z M43.2,37.1c0,4-3.3,7.3-7.4,7.3c-4,0-7.3-3.3-7.3-7.3c0-4.1,3.3-7.4,7.3-7.4
				C39.9,29.8,43.2,33,43.2,37.1L43.2,37.1z"/>
			<path class="st0" d="M48.4,41.7h7.9v2.7h-9.1h-1.5h-0.9c0-3.9,2.3-5.5,3.1-6c1.5-1,3.3-1.7,4.5-2.3c0.8-0.4,2.5-1.4,1-2.7
				c-0.7-0.6-1.8-0.6-2.7-0.6c-1.5,0-3.2,0.5-5.1,1.2l-0.9-2.3c1.3-0.5,2.2-0.8,3.2-1.1c1-0.2,1.8-0.4,2.7-0.4
				c1.3-0.1,2.9,0.2,4.2,0.9c1.1,0.7,2.3,2.2,1.8,4.2c-0.1,0.5-0.5,1.9-2.2,2.8C52.6,39,49.1,40.1,48.4,41.7L48.4,41.7z"/>
			<path class="st0" d="M70.5,37.1c0-2.6-2.1-4.8-4.8-4.8c-2.6,0-4.8,2.2-4.8,4.8c0,2.7,2.1,4.7,4.8,4.7
				C68.4,41.9,70.5,39.8,70.5,37.1L70.5,37.1z M73.2,37.1c0,4-3.3,7.3-7.4,7.3c-4,0-7.3-3.3-7.3-7.3c0-4.1,3.3-7.4,7.3-7.4
				C69.9,29.8,73.2,33,73.2,37.1L73.2,37.1z"/>
		</g>
		<g>
			<polygon class="st0" points="88.6,38.4 88.6,39.4 86.1,39.4 86.1,40.6 87.6,40.6 87.6,41.6 86.1,41.6 86.1,43.7 85,43.7 85,38.4 
				88.6,38.4 			"/>
			<polygon class="st0" points="93.1,38.4 93.1,39.4 90.2,39.4 90.2,40.5 92.1,40.5 92.1,41.4 90.2,41.4 90.2,42.8 93.2,42.8 
				93.2,43.7 90.2,43.7 89.2,43.7 89.2,38.4 93.1,38.4 			"/>
			<path class="st0" d="M95.8,42.8c0.9,0,1.7-0.8,1.7-1.7c0-0.9-0.8-1.7-1.7-1.7H95v3.5H95.8L95.8,42.8z M95.8,38.4
				c0.7,0,1.4,0.3,1.9,0.8c0.5,0.5,0.8,1.1,0.8,1.9c0,0.7-0.3,1.4-0.8,1.9c-0.5,0.5-1.1,0.8-1.9,0.8H95h-1v-0.9v-3.5v-0.9h1H95.8
				L95.8,38.4z"/>
			<polygon class="st0" points="102.9,38.4 102.9,39.4 100.1,39.4 100.1,40.5 102,40.5 102,41.4 100.1,41.4 100.1,42.8 103,42.8 
				103,43.7 100.1,43.7 99.1,43.7 99.1,38.4 102.9,38.4 			"/>
			<path class="st0" d="M104.9,39.3v1.5h1.4c0.2,0,0.4-0.1,0.5-0.2c0.1-0.1,0.2-0.3,0.2-0.5c0-0.2-0.1-0.4-0.2-0.5
				c-0.1-0.1-0.3-0.2-0.5-0.2H104.9L104.9,39.3z M103.8,38.4h1h1.4c0.5,0,0.9,0.2,1.2,0.5c0.3,0.3,0.5,0.7,0.5,1.2
				c0,0.5-0.2,0.9-0.5,1.2c-0.2,0.2-0.4,0.3-0.6,0.4l1.2,2h-1.1l-1.1-1.9h-0.9v1.9h-1v-1.9v-0.9v-1.5V38.4L103.8,38.4z"/>
			<polygon class="st0" points="114.3,38.4 114.3,39.4 111.8,39.4 111.8,40.6 113.4,40.6 113.4,41.6 111.8,41.6 111.8,43.7 
				110.8,43.7 110.8,38.4 114.3,38.4 			"/>
			<path class="st0" d="M119.2,39.7c-0.7-0.3-1.4-0.5-1.9-0.5c-0.3,0-0.7,0.1-1,0.3c-0.2,0.1-0.2,0.2-0.3,0.4c0,0.1,0,0.2,0.1,0.2
				c0.1,0.1,0.2,0.1,0.2,0.2c0.4,0.1,0.8,0.1,1.2,0.1h0.4c0.5,0,0.9,0.1,1.3,0.3c0.4,0.3,0.7,0.7,0.7,1.4c-0.1,1.2-1,1.6-2.1,1.6
				c-1.1,0-2-0.3-2.9-0.8l0.4-0.9c0.8,0.4,1.5,0.6,2.3,0.7c0.2,0,0.4,0,0.7-0.1c0.3-0.1,0.5-0.2,0.6-0.6c0-0.2-0.1-0.4-0.2-0.4
				c-0.2-0.1-0.4-0.1-0.7-0.2h-0.3c-0.3,0-0.6,0-1-0.1c-0.5-0.1-0.9-0.2-1.2-0.6c-0.2-0.2-0.3-0.5-0.3-0.9c0-0.6,0.3-1,0.8-1.2
				c0.5-0.3,1.1-0.4,1.6-0.4c0.3,0,0.6,0.1,1,0.1c0.4,0.1,0.7,0.2,1.2,0.4L119.2,39.7L119.2,39.7z"/>
			<polygon class="st0" points="124.5,38.4 124.5,39.4 121.6,39.4 121.6,40.5 123.5,40.5 123.5,41.4 121.6,41.4 121.6,42.8 
				124.5,42.8 124.5,43.7 121.6,43.7 120.6,43.7 120.6,38.4 124.5,38.4 			"/>
		</g>
		<g>
			<path class="st0" d="M77.2,33.8v0.9h0.6c0.2,0,0.4-0.2,0.4-0.4c0-0.2-0.2-0.4-0.4-0.4H77.2L77.2,33.8z M76.6,33.3h0.6h0.6
				c0.5,0,1,0.4,1,0.9c0,0.5-0.4,1-1,1h-0.6v1.1h-0.6v-1.1v-0.5v-0.9V33.3L76.6,33.3z"/>
			<path class="st0" d="M79.9,33.8v0.9h0.8c0.1,0,0.2,0,0.3-0.1c0.1-0.1,0.1-0.2,0.1-0.3c0-0.1,0-0.2-0.1-0.3
				c-0.1-0.1-0.2-0.1-0.3-0.1H79.9L79.9,33.8z M79.3,33.3h0.6h0.8c0.3,0,0.5,0.1,0.7,0.3c0.2,0.2,0.3,0.4,0.3,0.7
				c0,0.3-0.1,0.5-0.3,0.7c-0.1,0.1-0.2,0.2-0.3,0.2l0.7,1.1H81l-0.6-1.1h-0.5v1.1h-0.6v-1.1v-0.5v-0.9V33.3L79.3,33.3z"/>
			<path class="st0" d="M84.4,34.7c0-0.6-0.4-1-1-1c-0.6,0-1,0.4-1,1c0,0.6,0.4,1,1,1C83.9,35.7,84.4,35.3,84.4,34.7L84.4,34.7z
				 M84.9,34.7c0,0.8-0.7,1.5-1.5,1.5c-0.8,0-1.5-0.7-1.5-1.5c0-0.9,0.7-1.5,1.5-1.5C84.2,33.2,84.9,33.8,84.9,34.7L84.9,34.7z"/>
			<path class="st0" d="M88.1,35.5l0.3,0.3l-0.4,0.4l-0.3-0.3c-0.2,0.2-0.6,0.3-0.9,0.3c-0.8,0-1.5-0.7-1.5-1.5
				c0-0.8,0.7-1.5,1.5-1.5c0.4,0,0.8,0.2,1.1,0.5L87.6,34c-0.2-0.2-0.4-0.3-0.7-0.3c-0.6,0-1,0.5-1,1c0,0.5,0.4,1,1,1
				c0.3,0,0.5-0.1,0.7-0.3v-0.7h0.6V35.5L88.1,35.5z"/>
			<path class="st0" d="M89.4,33.8v0.9h0.8c0.1,0,0.2,0,0.3-0.1c0.1-0.1,0.1-0.2,0.1-0.3c0-0.1,0-0.2-0.1-0.3
				c-0.1-0.1-0.2-0.1-0.3-0.1H89.4L89.4,33.8z M88.8,33.3h0.6h0.8c0.3,0,0.5,0.1,0.7,0.3c0.2,0.2,0.3,0.4,0.3,0.7
				c0,0.3-0.1,0.5-0.3,0.7c-0.1,0.1-0.2,0.2-0.4,0.2l0.7,1.1h-0.6l-0.6-1.1h-0.5v1.1h-0.6v-1.1v-0.5v-0.9V33.3L88.8,33.3z"/>
			<path class="st0" d="M93,35l-0.4-1.2L92.3,35H93L93,35z M92.3,33.3H93l1.1,3h-0.6l-0.2-0.7h-1.1l-0.2,0.7h-0.6L92.3,33.3
				L92.3,33.3z"/>
			<polygon class="st0" points="95.1,34.2 94.9,36.2 94.4,36.2 94.7,33.3 95.4,33.3 96.2,35.6 97,33.3 97.7,33.3 98,36.2 97.4,36.2 
				97.2,34.2 96.5,36.2 95.8,36.2 95.1,34.2 			"/>
			<path class="st0" d="M100.1,35l-0.4-1.2L99.3,35H100.1L100.1,35z M99.3,33.3h0.7l1.1,3h-0.6l-0.2-0.7h-1.1L99,36.2h-0.6
				L99.3,33.3L99.3,33.3z"/>
			<path class="st0" d="M105.7,34.7c0-0.6-0.4-1-1-1c-0.6,0-1,0.4-1,1c0,0.6,0.4,1,1,1C105.3,35.7,105.7,35.3,105.7,34.7L105.7,34.7
				z M106.3,34.7c0,0.8-0.7,1.5-1.5,1.5c-0.9,0-1.5-0.7-1.5-1.5c0-0.9,0.7-1.5,1.5-1.5C105.6,33.2,106.3,33.8,106.3,34.7L106.3,34.7
				z"/>
			<path class="st0" d="M107.4,33.8v0.9h0.6c0.2,0,0.4-0.2,0.4-0.4c0-0.2-0.2-0.4-0.4-0.4H107.4L107.4,33.8z M106.8,33.3h0.6h0.6
				c0.5,0,0.9,0.4,0.9,0.9c0,0.5-0.4,1-0.9,1h-0.6v1.1h-0.6v-1.1v-0.5v-0.9V33.3L106.8,33.3z"/>
			<polygon class="st0" points="111.5,33.3 111.5,33.8 109.9,33.8 109.9,34.4 111,34.4 111,35 109.9,35 109.9,35.7 111.5,35.7 
				111.5,36.2 109.9,36.2 109.3,36.2 109.3,33.3 111.5,33.3 			"/>
			<path class="st0" d="M112.6,33.8v0.9h0.8c0.1,0,0.2,0,0.3-0.1c0.1-0.1,0.1-0.2,0.1-0.3c0-0.1,0-0.2-0.1-0.3
				c-0.1-0.1-0.2-0.1-0.3-0.1H112.6L112.6,33.8z M112,33.3h0.6h0.8c0.3,0,0.5,0.1,0.7,0.3c0.2,0.2,0.3,0.4,0.3,0.7
				c0,0.3-0.1,0.5-0.3,0.7c-0.1,0.1-0.2,0.2-0.3,0.2l0.7,1.1h-0.6l-0.6-1.1h-0.5v1.1H112v-1.1v-0.5v-0.9V33.3L112,33.3z"/>
			<path class="st0" d="M116.2,35l-0.4-1.2l-0.4,1.2H116.2L116.2,35z M115.5,33.3h0.7l1.1,3h-0.6l-0.3-0.7h-1.1l-0.2,0.7h-0.6
				L115.5,33.3L115.5,33.3z"/>
			<path class="st0" d="M120,35.8c-0.3,0.3-0.7,0.4-1.1,0.4c-0.8,0-1.5-0.7-1.5-1.5c0-0.8,0.7-1.6,1.5-1.6c0.4,0,0.8,0.2,1.1,0.5
				l-0.4,0.4c-0.2-0.2-0.4-0.3-0.7-0.3c-0.5,0-1,0.5-1,1s0.4,1,1,1c0.3,0,0.5-0.1,0.7-0.3L120,35.8L120,35.8z"/>
			<polygon class="st0" points="120.4,33.3 121,33.3 121,36.2 120.4,36.2 120.4,33.3 			"/>
			<path class="st0" d="M124.1,34.7c0-0.6-0.4-1-1-1c-0.5,0-1,0.4-1,1c0,0.6,0.4,1,1,1C123.6,35.7,124.1,35.3,124.1,34.7L124.1,34.7
				z M124.6,34.7c0,0.8-0.7,1.5-1.5,1.5c-0.8,0-1.5-0.7-1.5-1.5c0-0.9,0.7-1.5,1.5-1.5C123.9,33.2,124.6,33.8,124.6,34.7L124.6,34.7
				z"/>
			<polygon class="st0" points="127,33.3 127.5,33.3 127.5,36.2 127,36.2 125.6,34.1 125.6,36.2 125,36.2 125,33.3 125.6,33.3 
				125.7,33.3 127,35.3 127,33.3 			"/>
			<path class="st0" d="M129.7,35l-0.4-1.2L129,35H129.7L129.7,35z M128.9,33.3h0.7l1.1,3h-0.6l-0.2-0.7h-1.1l-0.2,0.7H128
				L128.9,33.3L128.9,33.3z"/>
			<polygon class="st0" points="131.1,33.3 131.7,33.3 131.7,35.7 133.2,35.7 133.2,36.2 131.7,36.2 131.1,36.2 131.1,35.7 
				131.1,33.3 			"/>
			<path class="st0" d="M100,35l-0.4-1.2L99.3,35H100L100,35z M99.2,33.3h0.8l1.1,3h-0.6l-0.2-0.7h-1.1l-0.2,0.7h-0.6L99.2,33.3
				L99.2,33.3z"/>
		</g>
	</g>
</g>
</svg>
